<svg width="73" height="83" viewBox="0 0 73 83" fill="none" xmlns="http://www.w3.org/2000/svg">
<path d="M48.7159 43.3158C48.575 43.3832 48.1191 43.6365 48.1191 44.1728C48.1191 44.5987 48.426 44.8937 48.7138 45.0282C48.8892 45.1092 49.0438 45.1489 49.1964 45.1489C49.5682 45.1489 49.8255 44.9798 49.9745 44.8365C50.1119 44.7071 50.2792 44.483 50.2792 44.1724C50.2792 43.8603 50.1116 43.6378 49.9745 43.5068C49.8276 43.3654 49.5703 43.1966 49.1964 43.1966C49.0438 43.1969 48.8874 43.2363 48.7159 43.3158Z" fill="#3C9EAA"/>
<path d="M51.3894 8.6296C51.3894 3.88695 47.0969 0 41.8478 0H9.54261C4.29033 0 0 3.88726 0 8.6296V74.3685C0 79.1146 4.29033 83 9.54261 83H41.8478C47.0973 83 51.3894 79.1143 51.3894 74.3685V68.4656L47.4326 68.4691V74.3688H4.63828V8.6296H47.4329V19.8772H51.3897V8.6296H51.3894ZM19.8201 78.0882C19.8201 77.5018 20.3501 77.0256 20.993 77.0256H30.3975C31.041 77.0256 31.571 77.5018 31.571 78.0882V78.621C31.571 79.2024 31.041 79.6817 30.3975 79.6817H20.993C20.3501 79.6817 19.8201 79.2024 19.8201 78.621V78.0882ZM25.6942 6.6429C25.0861 6.6429 24.593 6.1912 24.593 5.64446C24.593 5.09422 25.0861 4.64603 25.6942 4.64603C26.3015 4.64603 26.7992 5.09422 26.7992 5.64446C26.7992 6.19088 26.3015 6.6429 25.6942 6.6429ZM31.571 2.79029C31.571 3.07987 31.041 3.31795 30.3975 3.31795H20.993C20.3501 3.31795 19.8201 3.07987 19.8201 2.79029V2.52486C19.8201 2.23337 20.3501 1.9902 20.993 1.9902H30.3975C31.041 1.9902 31.571 2.23337 31.571 2.52486V2.79029Z" fill="#3C9EAA"/>
<path d="M52.1866 34.5257C51.2352 34.2845 50.2303 34.1481 49.1967 34.1481C48.5482 34.1481 47.9209 34.2085 47.3068 34.3016C45.0016 34.6602 42.9385 35.6504 41.352 37.0833C39.3462 38.8977 38.1094 41.4051 38.1094 44.1731C38.1094 46.9428 39.3462 49.4489 41.352 51.263C42.7937 52.5634 44.6206 53.496 46.6644 53.9274C47.4805 54.0981 48.3215 54.1985 49.1967 54.1985C50.1309 54.1985 51.0387 54.0828 51.9082 53.8829C53.8796 53.4363 55.6397 52.5224 57.0336 51.2633C59.0416 49.4492 60.2829 46.9431 60.2829 44.1735C60.2829 41.4054 59.0416 38.8981 57.0336 37.0836C55.7069 35.883 54.0437 34.9981 52.1866 34.5257ZM52.1866 46.7479C51.4316 47.4654 50.3734 47.9155 49.1967 47.9155C48.5103 47.9155 47.8731 47.7514 47.3068 47.4825C45.978 46.8601 45.0606 45.6185 45.0606 44.1731C45.0606 42.7243 45.9776 41.4811 47.3068 40.8603C47.8731 40.5965 48.5103 40.4292 49.1967 40.4292C50.3734 40.4292 51.4313 40.8809 52.1866 41.5949C52.8962 42.2675 53.3383 43.1709 53.3383 44.1731C53.3383 45.1697 52.8958 46.0753 52.1866 46.7479Z" fill="#3C9EAA"/>
<path d="M72.3487 41.2446L67.3418 40.708C66.8652 38.6453 65.9648 36.726 64.729 35.0187L67.8525 31.4353C68.0795 31.1817 68.0546 30.785 67.7973 30.5558L64.2528 27.3446C64.0008 27.1186 63.5621 27.0945 63.2764 27.2963L59.3143 30.1213C57.4266 29.0087 55.3062 28.1931 53.0273 27.7636L52.4344 23.2298C52.4154 23.0677 52.322 22.9211 52.1866 22.814C52.0569 22.7088 51.8854 22.6449 51.7062 22.6449H47.3069H46.6873C46.3284 22.6449 46.0026 22.9087 45.959 23.2295L45.3675 27.7633C43.0851 28.1927 40.963 29.0084 39.0791 30.1209L35.1111 27.296C34.8327 27.0942 34.3962 27.1183 34.1375 27.3443L30.5937 30.5555C30.3371 30.7847 30.3069 31.1814 30.5357 31.435L33.6609 35.0184C32.4284 36.7257 31.5254 38.6453 31.0485 40.7077L26.0412 41.2443C25.6827 41.2837 25.3938 41.5787 25.3938 41.9029V46.4402C25.3938 46.7628 25.6827 47.061 26.0412 47.1004L31.0485 47.6354C31.5251 49.6978 32.428 51.6155 33.6609 53.3263L31.6235 55.6633L30.5357 56.91C30.3069 57.1655 30.3375 57.5619 30.5937 57.7895L33.1232 60.0779L33.1707 60.1243L34.1375 60.9953C34.3892 61.2264 34.8327 61.2486 35.1146 61.0452L36.4094 60.1243L36.4702 60.0779L39.0788 58.2222C40.3869 58.9965 41.8188 59.6103 43.3311 60.0709C43.3884 60.0865 43.438 60.1087 43.4914 60.1262C44.1054 60.3039 44.7272 60.4625 45.3675 60.5846L45.959 65.1133C46.0026 65.4379 46.3288 65.6963 46.6873 65.6998L51.7058 65.6963C52.0605 65.6998 52.3923 65.4379 52.4341 65.1133L53.027 60.5846C53.66 60.4622 54.2835 60.3036 54.8975 60.1262C56.4689 59.6656 57.958 59.0257 59.3136 58.2222L61.9753 60.1211L63.2757 61.0455C63.5618 61.2489 64.0001 61.2264 64.2521 60.9956L65.2186 60.1211L67.7966 57.7895C68.0539 57.5616 68.0792 57.1652 67.8518 56.91L64.7283 53.3266C65.964 51.6158 66.8641 49.6981 67.3411 47.6357L72.348 47.1007C72.703 47.0613 73 46.7632 73 46.4405V41.9035C73.0011 41.5793 72.7037 41.2843 72.3487 41.2446ZM50.8708 56.143C50.3218 56.2068 49.7629 56.2501 49.1964 56.2501C47.5333 56.2501 45.951 55.9637 44.4867 55.4617C39.4376 53.737 35.8449 49.3395 35.8449 44.1725C35.8449 38.083 40.8315 33.0629 47.3066 32.23C47.9244 32.1506 48.55 32.0972 49.1964 32.0972C50.2241 32.0972 51.2215 32.2125 52.1863 32.4093C58.1165 33.6423 62.5478 38.4352 62.5478 44.1725C62.5478 50.3227 57.4526 55.3947 50.8708 56.143Z" fill="#E96C6C"/>
</svg>
