<svg width="89" height="83" viewBox="0 0 89 83" fill="none" xmlns="http://www.w3.org/2000/svg">
<path d="M86.5274 0H2.47386C1.11136 0 0 1.07142 0 2.38562V50.1361V51.257V56.8405C0 58.3127 1.11105 59.5179 2.47386 59.5179H21.5044C22.1667 59.2656 22.8429 59.0119 23.5346 58.753C24.8731 58.252 26.2561 57.7357 27.6356 57.1784C30.7614 55.9222 32.6609 55.093 33.7593 54.5871L33.7908 51.4384C33.3056 50.8566 32.7412 50.0139 32.2122 48.8732H4.97072V5.93322H83.8298V48.8732H56.7885C56.2604 50.0142 55.6944 50.8566 55.2123 51.4384L55.2416 54.5871C56.3376 55.0915 58.2348 55.9226 61.3634 57.1784C62.7429 57.7339 64.1275 58.2517 65.4629 58.7512C66.1571 59.0116 66.8307 59.2653 67.4972 59.5175H86.528C87.8886 59.5175 89 58.3124 89 56.8402V51.2567V50.1358V2.38532C88.9994 1.07142 87.888 0 86.5274 0Z" fill="#3C9EAA"/>
<path d="M74.8958 66.8292C72.9948 63.9708 66.613 62.1953 60.2927 59.655C60.1764 59.6088 60.0687 59.566 59.9543 59.518C53.9299 57.0883 52.477 56.2356 52.477 56.2356L52.4205 50.3899C52.4205 50.3899 52.9931 49.9597 53.6633 48.8734C54.3572 47.7509 55.1471 45.9323 55.523 43.138C57.0002 43.5518 58.5559 41.0091 58.6378 39.6669C58.7201 38.3779 58.433 34.7954 56.6275 35.1558C56.9968 32.4587 57.2637 30.036 57.1351 28.7537C56.665 24.0569 51.8716 19.1064 44.4999 19.1064C37.1277 19.1064 32.3341 24.0569 31.8637 28.7537C31.7348 30.0363 32.0029 32.4587 32.3722 35.1558C30.5661 34.7954 30.2787 38.3779 30.361 39.6669C30.4448 41.0091 31.9976 43.5518 33.4808 43.138C33.8535 45.9323 34.6448 47.7509 35.3373 48.8734C36.0076 49.9597 36.581 50.3899 36.581 50.3899L36.5228 56.2356C36.5228 56.2356 35.0679 57.0883 29.0445 59.518C28.9282 59.566 28.8223 59.6088 28.7045 59.655C22.387 62.1953 16.0043 63.9708 14.1049 66.8292C12.4024 69.388 12.9135 78.1122 12.9135 78.1122H44.5002H76.0853C76.0853 78.1122 76.5983 69.388 74.8958 66.8292Z" fill="#E96C6C"/>
<path d="M11.449 15.6951L14.992 19.1099L11.449 22.5265L12.9706 23.9939L18.0359 19.1099L12.9706 14.2271L11.449 15.6951Z" fill="#3C9EAA"/>
<path d="M27.2723 17.0361H20.8171V19.11H27.2723V17.0361Z" fill="#3C9EAA"/>
<path d="M81.838 83H7.03396C7.03396 83 4.68173 69.7176 7.03396 67.5364C18.786 56.6378 68.6148 57.6269 81.838 67.5364C84.4827 69.5197 81.838 83 81.838 83Z" fill="#3C9EAA"/>
</svg>
