<svg width="100" height="83" viewBox="0 0 100 83" fill="none" xmlns="http://www.w3.org/2000/svg">
<path d="M32.3744 46.0463L33.1751 43.082L33.9718 46.0463H32.3744ZM66.5466 29.7086H65.0191L65.3863 30.0906H66.9134L66.5466 29.7086ZM63.9841 30.0906V29.514L61.7945 27.241L60.1576 28.9468L59.0621 30.0902H63.3159H63.9841V30.0906ZM72.0777 30.0906L72.6249 29.5263H74.9195L73.4723 28.0188H71.2964L69.3042 30.0906H70.3237H72.0777ZM13.5186 30.0906H11.5674C16.3507 12.7248 31.7257 0 50.007 0C68.2746 0 83.6499 12.7252 88.4311 30.0906H87.2788C85.3293 23.2588 81.7142 17.1648 76.8822 12.3663H72.0071L71.7688 13.6285L70.6711 14.3821L68.3646 14.6334L68.4816 13.1177L66.4173 12.7431L66.7845 11.2296L63.6165 11.9895L61.9213 15.018L58.988 17.2933L58.7594 20.1825L61.6754 20.9402L63.3768 21.702L64.2303 20.8188V16.0252H65.3258V18.4237H67.3868V20.9398H65.4471V22.7024H60.5857V24.4731H58.988L56.8139 22.2042V20.6885H54.2651V23.2169V24.4731L53.5836 25.1621L54.8631 26.4911L56.4532 24.8499L57.6563 26.108L56.9864 26.807V27.7552H55.9571V30.0902H43.7815L43.3754 31.88L43.0042 30.0902H37.2798L38.5121 28.825L39.0629 29.3904L40.3949 28.0065H38.3303V26.8679H39.7912V25.1072H41.2503V20.8184H37.8461V20.0548H34.5528V26.2398L33.3461 26.6166L32.3636 24.2177L29.4573 22.0825L27.7524 19.6877L30.6662 20.0544L31.6469 18.4233L30.7894 17.4042L30.4261 16.142L34.0805 15.8989L34.5528 13.245L22.375 13.1277C18.5079 17.1633 15.4745 22.05 13.5197 27.4837V30.0906H13.5186ZM45.8763 18.424L47.8196 20.442L50.1262 18.0454L54.552 13.4384L56.388 11.5441H58.5131V6.94084V3.66292H55.7181V1.58444C53.8547 1.29466 51.9445 1.13857 50.007 1.13857C49.5519 1.13857 49.1163 1.16695 48.6869 1.18338L48.5461 1.5176V4.67603H46.1125V10.8491H46.4779H47.8196V13.2457H45.8763V18.424V18.424ZM26.6418 9.25645L27.6339 10.2837H31.2181L32.7337 8.70341V6.56592H34.3098V10.2147H36.7492V17.7855H40.2729V7.31315H38.7026H35.6573V5.0543H37.845L39.1263 3.72715L38.4056 2.9818C34.1125 4.36982 30.146 6.51551 26.6418 9.25645ZM83.5542 53.0681L82.6131 57.0593H76.6245V60.1669H73.8982V65.5293L71.7691 67.7299H66.7633V62.9646L64.0622 60.1669V53.238L63.0272 57.0589H51.1032V61.5527H47.82L46.1128 64.0812V69.7501L41.1247 73.5344V80.3438L35.5327 75.058V61.1681L29.7925 55.5869L29.3943 57.0597H17.2183L16.2867 53.0722L15.3474 57.0597H12.9332C18.8686 72.2625 33.2165 83 50.0074 83C66.7867 83 81.1328 72.2625 87.066 57.0597H84.4859L83.5542 53.0681Z" fill="#3C9EAA"/>
<path d="M31.7864 36.7012L32.7318 33.2034H30.0307H29.4957H25.9292L24.1245 41.1685C23.9214 42.0091 23.7339 43.1256 23.5658 44.5092C23.3958 45.8949 23.2767 47.0518 23.2047 47.9798H23.1305C23.119 47.9712 23.1053 47.9615 23.0916 47.9514C22.9473 46.4521 22.5995 44.3613 22.0505 41.679L20.3182 33.2034H12.5234L12.2228 34.5354L10.6291 41.5714C10.0041 44.7198 9.67218 46.8573 9.6369 47.9798H9.52746C9.44358 46.1724 9.13686 43.9035 8.60729 41.1685L6.94733 33.2034H0L5.57608 53.9482H12.9921L15.0665 45.1436C15.2245 44.4629 15.4923 43.0457 15.8693 40.9022C15.9884 40.2297 16.1169 39.4922 16.2577 38.6778H16.3671L16.7264 41.0766L16.9414 42.2511L17.2693 44.0622L19.578 53.949H27.1208L27.9077 51.0419L31.3767 38.2117L31.7864 36.7012Z" fill="#E96C6C"/>
<path d="M65.011 38.21L66.3667 33.2027H63.6635H63.6379H59.562L57.7573 41.1679C57.5542 42.0085 57.3667 43.125 57.1985 44.5086C57.0304 45.8943 56.9113 47.0512 56.8393 47.9792H56.7295C56.5851 46.4758 56.2355 44.3767 55.6847 41.6784L53.9524 33.2027H50.8099H46.1573L44.2608 41.5712C43.6945 44.4279 43.3701 46.4414 43.2902 47.6308C43.2823 47.7521 43.2726 47.8757 43.2704 47.9795H43.1592C43.1552 47.8981 43.1455 47.8029 43.1415 47.7204C43.0418 45.9537 42.7452 43.7796 42.2412 41.1683L40.5808 33.2031H36.3346H33.6313L34.9792 38.2145L35.2895 39.3684L35.395 39.7623L38.9011 52.8057L39.2096 53.9484H40.4498H40.9322H46.6238L48.7 45.1437C48.8814 44.3476 49.2176 42.5455 49.7058 39.7466C49.7645 39.4042 49.825 39.0517 49.8912 38.6779H49.9992L50.1594 39.7466L50.3607 41.0768L50.9017 44.0619L53.2101 53.9487H60.7532L64.6614 39.5035L65.011 38.21Z" fill="#E96C6C"/>
<path d="M93.1969 33.2024L91.3922 41.1675C91.1873 42.0081 90.9994 43.1246 90.8334 44.5082C90.6635 45.894 90.5444 47.0508 90.472 47.9788H90.3626C90.2182 46.4754 89.8686 44.3764 89.3178 41.678L87.6381 33.4627L87.5855 33.2024H79.7907L77.8942 41.5708C77.3398 44.3648 77.0173 46.3581 76.9273 47.5576C76.9158 47.7073 76.9078 47.8533 76.9042 47.9792H76.7926C76.7887 47.8858 76.779 47.7723 76.771 47.6771C76.6695 45.9205 76.3765 43.7587 75.8746 41.1675L75.3551 38.6734L74.2147 33.2024H69.9706H67.2673L68.6127 38.2137L70.314 44.5347L71.9938 50.7929L72.8434 53.9472H80.2577L82.3338 45.1426C82.4727 44.541 82.701 43.3517 83.0138 41.6022C83.164 40.7564 83.3321 39.7911 83.5254 38.6768H83.633L83.8984 40.4352L83.9941 41.0753L84.5352 44.0604L86.8461 53.9472H94.387L100 33.2024H93.1969V33.2024Z" fill="#E96C6C"/>
</svg>
