<svg width="95" height="83" viewBox="0 0 95 83" fill="none" xmlns="http://www.w3.org/2000/svg">
<path d="M63.0126 78.4754H33.986V72.9473H63.0126V78.4754ZM34.0611 79.1978L32.7993 82.1386C32.7993 82.1386 32.9308 83 33.4584 83C33.986 83 63.2794 83 63.8053 83C64.3346 83 64.3346 82.1386 64.3346 82.1386L63.0724 79.1978H34.0611ZM95 2.86914V60.3066V61.6551V68.3724C95 70.1409 93.8133 71.5943 92.362 71.5943H2.64018C1.18667 71.5943 0 70.1409 0 68.3724V61.6551V60.3066V2.86914C0 1.28958 1.18667 0 2.64018 0H92.362C93.8133 0 95 1.28958 95 2.86914ZM89.482 7.13705H5.30564V58.7859H89.482V7.13705Z" fill="#3C9EAA"/>
<path d="M67.6246 13.3701H27.8452V17.5254H67.6246V13.3701Z" fill="#E96C6C"/>
<path d="M82.5423 22.5701H12.9282V26.2077H82.5423V22.5701Z" fill="#3C9EAA"/>
<path d="M33.4024 31.2516H12.9282V53.4441H33.4024V31.2516Z" fill="#E96C6C"/>
<path d="M57.971 31.2516H37.4968V53.4441H57.971V31.2516Z" fill="#E96C6C"/>
<path d="M82.5421 31.2516H62.0676V53.4441H82.5421V31.2516Z" fill="#E96C6C"/>
</svg>
