<svg width="1009" height="100" viewBox="0 0 1009 100" fill="none" xmlns="http://www.w3.org/2000/svg">
<rect width="1009" height="100" fill="white"/>
<path d="M133.374 46.0463L134.175 43.082L134.972 46.0463H133.374ZM167.547 29.7086H166.019L166.386 30.0906H167.913L167.547 29.7086ZM164.984 30.0906V29.514L162.795 27.241L161.158 28.9468L160.062 30.0902H164.316H164.984V30.0906ZM173.078 30.0906L173.625 29.5263H175.92L174.472 28.0188H172.296L170.304 30.0906H171.324H173.078ZM114.519 30.0906H112.567C117.351 12.7248 132.726 0 151.007 0C169.275 0 184.65 12.7252 189.431 30.0906H188.279C186.329 23.2588 182.714 17.1648 177.882 12.3663H173.007L172.769 13.6285L171.671 14.3821L169.365 14.6334L169.482 13.1177L167.417 12.7431L167.785 11.2296L164.617 11.9895L162.921 15.018L159.988 17.2933L159.759 20.1825L162.675 20.9402L164.377 21.702L165.23 20.8188V16.0252H166.326V18.4237H168.387V20.9398H166.447V22.7024H161.586V24.4731H159.988L157.814 22.2042V20.6885H155.265V23.2169V24.4731L154.584 25.1621L155.863 26.4911L157.453 24.8499L158.656 26.108L157.986 26.807V27.7552H156.957V30.0902H144.781L144.375 31.88L144.004 30.0902H138.28L139.512 28.825L140.063 29.3904L141.395 28.0065H139.33V26.8679H140.791V25.1072H142.25V20.8184H138.846V20.0548H135.553V26.2398L134.346 26.6166L133.364 24.2177L130.457 22.0825L128.752 19.6877L131.666 20.0544L132.647 18.4233L131.789 17.4042L131.426 16.142L135.08 15.8989L135.553 13.245L123.375 13.1277C119.508 17.1633 116.474 22.05 114.52 27.4837V30.0906H114.519ZM146.876 18.424L148.82 20.442L151.126 18.0454L155.552 13.4384L157.388 11.5441H159.513V6.94084V3.66292H156.718V1.58444C154.855 1.29466 152.945 1.13857 151.007 1.13857C150.552 1.13857 150.116 1.16695 149.687 1.18338L149.546 1.5176V4.67603H147.112V10.8491H147.478H148.82V13.2457H146.876V18.424V18.424ZM127.642 9.25645L128.634 10.2837H132.218L133.734 8.70341V6.56592H135.31V10.2147H137.749V17.7855H141.273V7.31315H139.703H136.657V5.0543H138.845L140.126 3.72715L139.406 2.9818C135.113 4.36982 131.146 6.51551 127.642 9.25645ZM184.554 53.0681L183.613 57.0593H177.624V60.1669H174.898V65.5293L172.769 67.7299H167.763V62.9646L165.062 60.1669V53.238L164.027 57.0589H152.103V61.5527H148.82L147.113 64.0812V69.7501L142.125 73.5344V80.3438L136.533 75.058V61.1681L130.792 55.5869L130.394 57.0597H118.218L117.287 53.0722L116.347 57.0597H113.933C119.869 72.2625 134.216 83 151.007 83C167.787 83 182.133 72.2625 188.066 57.0597H185.486L184.554 53.0681Z" fill="#3C9EAA"/>
<path d="M132.786 36.7012L133.732 33.2034H131.031H130.496H126.929L125.124 41.1685C124.921 42.0091 124.734 43.1256 124.566 44.5092C124.396 45.8949 124.277 47.0518 124.205 47.9798H124.131C124.119 47.9712 124.105 47.9615 124.092 47.9514C123.947 46.4521 123.6 44.3613 123.051 41.679L121.318 33.2034H113.523L113.223 34.5354L111.629 41.5714C111.004 44.7198 110.672 46.8573 110.637 47.9798H110.527C110.444 46.1724 110.137 43.9035 109.607 41.1685L107.947 33.2034H101L106.576 53.9482H113.992L116.066 45.1436C116.224 44.4629 116.492 43.0457 116.869 40.9022C116.988 40.2297 117.117 39.4922 117.258 38.6778H117.367L117.726 41.0766L117.941 42.2511L118.269 44.0622L120.578 53.949H128.121L128.908 51.0419L132.377 38.2117L132.786 36.7012Z" fill="#E96C6C"/>
<path d="M166.011 38.21L167.367 33.2027H164.663H164.638H160.562L158.757 41.1679C158.554 42.0085 158.367 43.125 158.199 44.5086C158.03 45.8943 157.911 47.0512 157.839 47.9792H157.729C157.585 46.4758 157.236 44.3767 156.685 41.6784L154.952 33.2027H151.81H147.157L145.261 41.5712C144.694 44.4279 144.37 46.4414 144.29 47.6308C144.282 47.7521 144.273 47.8757 144.27 47.9795H144.159C144.155 47.8981 144.145 47.8029 144.142 47.7204C144.042 45.9537 143.745 43.7796 143.241 41.1683L141.581 33.2031H137.335H134.631L135.979 38.2145L136.29 39.3684L136.395 39.7623L139.901 52.8057L140.21 53.9484H141.45H141.932H147.624L149.7 45.1437C149.881 44.3476 150.218 42.5455 150.706 39.7466C150.764 39.4042 150.825 39.0517 150.891 38.6779H150.999L151.159 39.7466L151.361 41.0768L151.902 44.0619L154.21 53.9487H161.753L165.661 39.5035L166.011 38.21Z" fill="#E96C6C"/>
<path d="M194.197 33.2024L192.392 41.1675C192.187 42.0081 191.999 43.1246 191.833 44.5082C191.664 45.894 191.544 47.0508 191.472 47.9788H191.363C191.218 46.4754 190.869 44.3764 190.318 41.678L188.638 33.4627L188.586 33.2024H180.791L178.894 41.5708C178.34 44.3648 178.017 46.3581 177.927 47.5576C177.916 47.7073 177.908 47.8533 177.904 47.9792H177.793C177.789 47.8858 177.779 47.7723 177.771 47.6771C177.67 45.9205 177.376 43.7587 176.875 41.1675L176.355 38.6734L175.215 33.2024H170.971H168.267L169.613 38.2137L171.314 44.5347L172.994 50.7929L173.843 53.9472H181.258L183.334 45.1426C183.473 44.541 183.701 43.3517 184.014 41.6022C184.164 40.7564 184.332 39.7911 184.525 38.6768H184.633L184.898 40.4352L184.994 41.0753L185.535 44.0604L187.846 53.9472H195.387L201 33.2024H194.197V33.2024Z" fill="#E96C6C"/>
<path d="M267.013 78.4754H237.986V72.9473H267.013V78.4754ZM238.061 79.1978L236.799 82.1386C236.799 82.1386 236.931 83 237.458 83C237.986 83 267.279 83 267.805 83C268.335 83 268.335 82.1386 268.335 82.1386L267.072 79.1978H238.061ZM299 2.86914V60.3066V61.6551V68.3724C299 70.1409 297.813 71.5943 296.362 71.5943H206.64C205.187 71.5943 204 70.1409 204 68.3724V61.6551V60.3066V2.86914C204 1.28958 205.187 0 206.64 0H296.362C297.813 0 299 1.28958 299 2.86914ZM293.482 7.13705H209.306V58.7859H293.482V7.13705Z" fill="#3C9EAA"/>
<path d="M271.625 13.3701H231.845V17.5254H271.625V13.3701Z" fill="#E96C6C"/>
<path d="M286.542 22.5701H216.928V26.2077H286.542V22.5701Z" fill="#3C9EAA"/>
<path d="M237.402 31.2516H216.928V53.4441H237.402V31.2516Z" fill="#E96C6C"/>
<path d="M261.971 31.2516H241.497V53.4441H261.971V31.2516Z" fill="#E96C6C"/>
<path d="M286.542 31.2516H266.068V53.4441H286.542V31.2516Z" fill="#E96C6C"/>
<path d="M367.716 43.3158C367.575 43.3832 367.119 43.6365 367.119 44.1728C367.119 44.5987 367.426 44.8937 367.714 45.0282C367.889 45.1092 368.044 45.1489 368.196 45.1489C368.568 45.1489 368.825 44.9798 368.975 44.8365C369.112 44.7071 369.279 44.483 369.279 44.1724C369.279 43.8603 369.112 43.6378 368.975 43.5068C368.828 43.3654 368.57 43.1966 368.196 43.1966C368.044 43.1969 367.887 43.2363 367.716 43.3158Z" fill="#3C9EAA"/>
<path d="M370.389 8.6296C370.389 3.88695 366.097 0 360.848 0H328.543C323.29 0 319 3.88726 319 8.6296V74.3685C319 79.1146 323.29 83 328.543 83H360.848C366.097 83 370.389 79.1143 370.389 74.3685V68.4656L366.433 68.4691V74.3688H323.638V8.6296H366.433V19.8772H370.39V8.6296H370.389ZM338.82 78.0882C338.82 77.5018 339.35 77.0256 339.993 77.0256H349.397C350.041 77.0256 350.571 77.5018 350.571 78.0882V78.621C350.571 79.2024 350.041 79.6817 349.397 79.6817H339.993C339.35 79.6817 338.82 79.2024 338.82 78.621V78.0882ZM344.694 6.6429C344.086 6.6429 343.593 6.1912 343.593 5.64446C343.593 5.09422 344.086 4.64603 344.694 4.64603C345.301 4.64603 345.799 5.09422 345.799 5.64446C345.799 6.19088 345.301 6.6429 344.694 6.6429ZM350.571 2.79029C350.571 3.07987 350.041 3.31795 349.397 3.31795H339.993C339.35 3.31795 338.82 3.07987 338.82 2.79029V2.52486C338.82 2.23337 339.35 1.9902 339.993 1.9902H349.397C350.041 1.9902 350.571 2.23337 350.571 2.52486V2.79029Z" fill="#3C9EAA"/>
<path d="M371.187 34.5257C370.235 34.2845 369.23 34.1481 368.197 34.1481C367.548 34.1481 366.921 34.2085 366.307 34.3016C364.002 34.6602 361.938 35.6504 360.352 37.0833C358.346 38.8977 357.109 41.4051 357.109 44.1731C357.109 46.9428 358.346 49.4489 360.352 51.263C361.794 52.5634 363.621 53.496 365.664 53.9274C366.48 54.0981 367.322 54.1985 368.197 54.1985C369.131 54.1985 370.039 54.0828 370.908 53.8829C372.88 53.4363 374.64 52.5224 376.034 51.2633C378.042 49.4492 379.283 46.9431 379.283 44.1735C379.283 41.4054 378.042 38.8981 376.034 37.0836C374.707 35.883 373.044 34.9981 371.187 34.5257ZM371.187 46.7479C370.432 47.4654 369.373 47.9155 368.197 47.9155C367.51 47.9155 366.873 47.7514 366.307 47.4825C364.978 46.8601 364.061 45.6185 364.061 44.1731C364.061 42.7243 364.978 41.4811 366.307 40.8603C366.873 40.5965 367.51 40.4292 368.197 40.4292C369.373 40.4292 370.431 40.8809 371.187 41.5949C371.896 42.2675 372.338 43.1709 372.338 44.1731C372.338 45.1697 371.896 46.0753 371.187 46.7479Z" fill="#3C9EAA"/>
<path d="M391.349 41.2446L386.342 40.708C385.865 38.6453 384.965 36.726 383.729 35.0187L386.852 31.4353C387.08 31.1817 387.055 30.785 386.797 30.5558L383.253 27.3446C383.001 27.1186 382.562 27.0945 382.276 27.2963L378.314 30.1213C376.427 29.0087 374.306 28.1931 372.027 27.7636L371.434 23.2298C371.415 23.0677 371.322 22.9211 371.187 22.814C371.057 22.7088 370.885 22.6449 370.706 22.6449H366.307H365.687C365.328 22.6449 365.003 22.9087 364.959 23.2295L364.368 27.7633C362.085 28.1927 359.963 29.0084 358.079 30.1209L354.111 27.296C353.833 27.0942 353.396 27.1183 353.138 27.3443L349.594 30.5555C349.337 30.7847 349.307 31.1814 349.536 31.435L352.661 35.0184C351.428 36.7257 350.525 38.6453 350.049 40.7077L345.041 41.2443C344.683 41.2837 344.394 41.5787 344.394 41.9029V46.4402C344.394 46.7628 344.683 47.061 345.041 47.1004L350.049 47.6354C350.525 49.6978 351.428 51.6155 352.661 53.3263L350.624 55.6633L349.536 56.91C349.307 57.1655 349.337 57.5619 349.594 57.7895L352.123 60.0779L352.171 60.1243L353.138 60.9953C353.389 61.2264 353.833 61.2486 354.115 61.0452L355.409 60.1243L355.47 60.0779L358.079 58.2222C359.387 58.9965 360.819 59.6103 362.331 60.0709C362.388 60.0865 362.438 60.1087 362.491 60.1262C363.105 60.3039 363.727 60.4625 364.368 60.5846L364.959 65.1133C365.003 65.4379 365.329 65.6963 365.687 65.6998L370.706 65.6963C371.06 65.6998 371.392 65.4379 371.434 65.1133L372.027 60.5846C372.66 60.4622 373.283 60.3036 373.897 60.1262C375.469 59.6656 376.958 59.0257 378.314 58.2222L380.975 60.1211L382.276 61.0455C382.562 61.2489 383 61.2264 383.252 60.9956L384.219 60.1211L386.797 57.7895C387.054 57.5616 387.079 57.1652 386.852 56.91L383.728 53.3266C384.964 51.6158 385.864 49.6981 386.341 47.6357L391.348 47.1007C391.703 47.0613 392 46.7632 392 46.4405V41.9035C392.001 41.5793 391.704 41.2843 391.349 41.2446ZM369.871 56.143C369.322 56.2068 368.763 56.2501 368.196 56.2501C366.533 56.2501 364.951 55.9637 363.487 55.4617C358.438 53.737 354.845 49.3395 354.845 44.1725C354.845 38.083 359.832 33.0629 366.307 32.23C366.924 32.1506 367.55 32.0972 368.196 32.0972C369.224 32.0972 370.222 32.2125 371.186 32.4093C377.117 33.6423 381.548 38.4352 381.548 44.1725C381.548 50.3227 376.453 55.3947 369.871 56.143Z" fill="#E96C6C"/>
<path d="M496.527 0H412.474C411.111 0 410 1.07142 410 2.38562V50.1361V51.257V56.8405C410 58.3127 411.111 59.5179 412.474 59.5179H431.504C432.167 59.2656 432.843 59.0119 433.535 58.753C434.873 58.252 436.256 57.7357 437.636 57.1784C440.761 55.9222 442.661 55.093 443.759 54.5871L443.791 51.4384C443.306 50.8566 442.741 50.0139 442.212 48.8732H414.971V5.93322H493.83V48.8732H466.788C466.26 50.0142 465.694 50.8566 465.212 51.4384L465.242 54.5871C466.338 55.0915 468.235 55.9226 471.363 57.1784C472.743 57.7339 474.127 58.2517 475.463 58.7512C476.157 59.0116 476.831 59.2653 477.497 59.5175H496.528C497.889 59.5175 499 58.3124 499 56.8402V51.2567V50.1358V2.38532C498.999 1.07142 497.888 0 496.527 0Z" fill="#3C9EAA"/>
<path d="M484.896 66.8292C482.995 63.9708 476.613 62.1953 470.293 59.655C470.176 59.6088 470.069 59.566 469.954 59.518C463.93 57.0883 462.477 56.2356 462.477 56.2356L462.421 50.3899C462.421 50.3899 462.993 49.9597 463.663 48.8734C464.357 47.7509 465.147 45.9323 465.523 43.138C467 43.5518 468.556 41.0091 468.638 39.6669C468.72 38.3779 468.433 34.7954 466.627 35.1558C466.997 32.4587 467.264 30.036 467.135 28.7537C466.665 24.0569 461.872 19.1064 454.5 19.1064C447.128 19.1064 442.334 24.0569 441.864 28.7537C441.735 30.0363 442.003 32.4587 442.372 35.1558C440.566 34.7954 440.279 38.3779 440.361 39.6669C440.445 41.0091 441.998 43.5518 443.481 43.138C443.854 45.9323 444.645 47.7509 445.337 48.8734C446.008 49.9597 446.581 50.3899 446.581 50.3899L446.523 56.2356C446.523 56.2356 445.068 57.0883 439.044 59.518C438.928 59.566 438.822 59.6088 438.704 59.655C432.387 62.1953 426.004 63.9708 424.105 66.8292C422.402 69.388 422.913 78.1122 422.913 78.1122H454.5H486.085C486.085 78.1122 486.598 69.388 484.896 66.8292Z" fill="#E96C6C"/>
<path d="M421.449 15.6951L424.992 19.1099L421.449 22.5265L422.971 23.9939L428.036 19.1099L422.971 14.2271L421.449 15.6951Z" fill="#3C9EAA"/>
<path d="M437.272 17.0361H430.817V19.11H437.272V17.0361Z" fill="#3C9EAA"/>
<path d="M491.838 83H417.034C417.034 83 414.682 69.7176 417.034 67.5364C428.786 56.6378 478.615 57.6269 491.838 67.5364C494.483 69.5197 491.838 83 491.838 83Z" fill="#3C9EAA"/>
</svg>
