<svg width="468" height="532" viewBox="0 0 468 532" fill="none" xmlns="http://www.w3.org/2000/svg">
<path fill-rule="evenodd" clip-rule="evenodd" d="M208.627 490.769C223.94 479.953 228.448 462.485 219.796 445.112C215.874 437.235 210.467 430.072 206.383 422.257C196.965 404.216 195.702 385.8 205.565 367.47C214.392 351.06 212.92 334.952 204.139 319.268C202.894 317.045 197.709 314.663 195.706 315.49C186.587 319.264 177.953 324.154 167.258 329.603C169.305 312.953 187.812 316.446 192.568 305.845C178.475 297.295 174.639 297.625 161.171 306.334C155.935 309.724 149.894 312.928 143.859 313.782C139.762 314.359 132.172 311.676 131.11 308.742C127.467 298.679 107.05 290.6 105.26 289.505C105.71 288.373 125.33 291.107 131.627 296.823C143.619 307.714 144.787 308.897 157.844 298.478C160.405 296.435 162.716 294.091 165.276 291.767C149.316 271.912 130.796 256.826 105.8 249.704C99.6519 247.953 94.7382 241.82 89.4814 237.443C85.2519 233.922 80.6283 230.514 77.4857 226.158C72.6219 219.418 68.3627 212.145 64.827 204.658C62.1508 198.987 59.8178 195.571 53.3402 200.095C51.5469 201.347 49.4444 202.653 47.3429 202.928C38.2455 204.135 37.625 218.372 36.109 218.418C30.7629 208.941 36.3831 200.705 40.0484 198.81C46.4101 195.521 53.7216 193.979 61.2648 191.494C60.1004 186.864 59.4278 183.348 58.3325 179.96C52.8526 163.056 53.0746 158.122 40.6805 164.702C32.245 167.163 24.909 168.963 12.8984 157.834C7.94121 157.328 -0.295675 152.855 0.00817525 151.07C6.9521 153.176 13.8057 155.682 20.8825 157.213C24.1324 157.915 28.0187 157.29 31.2516 156.224C35.6649 154.768 39.7286 152.314 46.2263 149.189C34.5685 147.258 16.6211 145.354 8.45329 136.861C16.1037 138.451 33.216 141.301 40.7761 142.875C31.5289 131.039 23.5502 120.83 15.5736 110.618C16.6052 109.787 37.0991 127.229 46.3113 136.78C47.5278 135.91 48.7474 135.043 49.9628 134.171C48.6869 131.037 46.5015 127.453 45.9905 125.09C41.9193 106.267 31.4184 92.5364 28.2843 84.9977C27.4322 82.9473 27.0296 80.7196 27.2091 78.328C49.8768 104.341 57.4337 137.219 70.8031 169.28C76.163 160.037 77.0618 152.433 73.1574 144.177C69.5356 136.507 69.2615 128.992 74.6129 122.468C77.3136 131.856 80.9194 140.756 82.1943 149.962C83.2567 157.591 82.9305 165.949 80.8503 173.346C74.0859 197.382 83.1101 211.889 105.355 224.146C122.055 233.346 140.442 226.472 156.192 234.826C156.916 235.211 158.302 234.642 159.291 234.291C172.875 229.439 177.773 230.854 186.806 241.819C193.775 250.288 200.98 258.58 208.083 266.947C209.205 266.291 210.33 265.637 211.456 264.979C208.832 259.49 206.596 253.777 203.472 248.57C200.111 242.97 196.241 237.578 191.964 232.612C189.276 229.479 185.718 226.794 182.048 224.784C173.362 220.02 164.685 214.995 155.43 211.533C145.245 207.723 130.631 203.755 116.288 203.755C122.136 191.845 138.599 195.977 145.207 201.864C143.563 189.131 126.381 162.789 95.4192 166.501C103.69 158.166 114.695 157.085 134.226 172.234C133.429 169.23 133.22 166.931 132.243 165.009C128.575 157.802 123.605 151.054 121.07 143.513C116.618 130.278 110.036 118.468 100.351 114.563C80.1651 102.636 73.8033 97.7718 67.0783 88.6836C96.2914 100.989 128.943 108.758 139.341 147.799C143.944 132.951 140.48 125.924 131.442 117.103C114.375 100.444 96.9331 82.6683 94.0742 57.1129C93.6418 53.258 94.8827 49.2081 95.4776 45.2681C96.3637 39.3503 97.3698 33.4513 98.5044 26.4207C110.654 31.2578 103.856 41.4671 104.459 47.8681C111.648 42.5457 118.839 36.7265 126.553 31.6633C133.386 27.1768 138.189 29.9707 143.467 39.9021C127.975 36.7804 117.762 48.2633 114.384 52.8369C104.05 66.8493 110.952 81.7246 118.845 91.0482C125.451 98.8566 133.902 105.205 141.694 112.027C148.766 118.216 151.283 125.693 149.587 134.765C143.354 168.123 158.513 194.219 190.857 205.548C192.941 206.279 196.744 206.123 197.843 204.832C199.324 203.093 199.932 199.535 199.174 197.326C197.642 192.865 194.466 188.947 192.877 184.496C191.739 181.303 190.429 176.334 192.034 174.349C200.193 164.273 197.192 159.094 182.251 157.281C194.375 154.623 203.699 160.392 200.472 166.912C194.816 178.346 202.475 186.434 204.085 195.96C205.258 202.893 206.73 209.773 208.095 216.824C220.994 210.214 227.639 187.685 219.744 174.626C212.996 163.465 204.461 153.338 196.707 142.761C196.275 142.167 195.406 141.665 195.337 141.056C193.539 125.501 179.274 122.766 168.649 116.41C160.134 111.315 156.179 105.084 161.098 95.431C164.253 89.2395 161.35 85.6853 155.866 81.9278C153.003 79.9656 151.427 74.583 151.466 70.7654C151.495 68.1177 155.267 65.5042 157.37 62.8751C158.213 63.404 157.249 71.4333 155.653 75.645C167.824 79.6503 170.332 88.5871 170.992 99.6199C171.266 104.201 176.266 108.513 179.113 112.947C180.629 112.152 182.14 111.359 183.655 110.564C181.98 106.809 180.277 103.067 178.637 99.3025C177.378 96.41 175.067 93.4439 175.186 90.5867C175.631 79.6815 176.62 68.7783 177.87 57.925C179.475 43.9925 193.435 29.7851 207.281 26.9289C213.047 25.7404 218.985 24.3714 224.174 21.7994C228.163 19.8185 232.373 16.3203 233.956 12.5006C234.705 10.695 229.538 6.54969 225.06 0.998047C232.179 3.80032 241.02 4.77209 242.206 8.23603C245.263 17.177 238.811 23.074 230.12 26.2496C223.818 28.5499 217.261 30.4488 211.404 33.584C192.563 43.6595 185.516 59.1602 190.26 79.7022C191.967 87.1072 194.66 94.2974 196.583 100.551C216.378 92.1278 217.435 71.0703 230.805 58.5918C238.446 64.3551 238.446 64.3551 220.355 77.1571C226.216 84.2634 223.66 90.3129 217.209 95.6478C207.371 103.776 205.689 117.442 213.416 128.357C219.345 136.73 225.566 144.9 231.799 153.355C240.318 148.734 244.667 141.712 242.227 132.623C241.071 128.314 236.554 124.866 232.26 119.358C240.857 120.779 249.859 122.269 260.677 124.057C258.195 117.297 256.051 111.466 253.871 105.538C250.725 106.367 248.396 106.982 244.996 107.876C249.983 103.325 254.029 99.6282 258.563 95.4891C260.156 97.6629 262.468 100.82 264.783 103.975C265.262 103.722 265.741 103.467 266.221 103.215C264.401 91.517 263.519 79.5902 260.57 68.1706C253.532 40.8936 266.812 22.7213 289.403 5.3259C288.094 9.65687 287.875 11.8763 286.826 13.6145C281.671 22.1209 276.226 30.4602 271.012 38.9355C264.65 49.2703 267.184 58.819 275.284 71.4095C276.448 55.8715 279.825 44.3917 293.358 38.0436C292.528 49.2143 280.224 55.6693 284.453 67.0982C284.624 67.5618 284.004 68.6031 283.46 68.9826C264.892 82.0679 280.72 93.5932 285.63 106.475C282.043 85.4167 303.276 84.3267 312.348 73.7243C313.337 72.5669 325.405 82.9722 324.775 84.7063C321.167 83.6577 317.557 82.6061 313.276 81.3647C312.865 91.9484 291.576 93.9251 300.091 110.575C310.285 109.085 318.992 105.24 324.912 94.7921C328.35 88.7261 335.319 84.6098 340.473 79.4077C344.308 75.5444 348.638 71.7932 351.171 67.1698C353.659 62.6335 353.474 58.1863 345.55 57.6377C341.175 57.3328 336.679 54.46 332.999 51.7604C331.966 51.0043 337.191 33.1754 337.798 35.7422C339.385 42.47 339.19 48.089 339.19 50.6154C340.684 50.8073 343.21 51.1412 345.731 51.4399C359.22 53.0423 364.957 64.0543 357.483 75.0663C354.229 79.8557 349.208 83.4597 345.342 87.8985C341.424 92.3923 337.944 97.2491 334.271 101.944C335.354 102.765 336.437 103.587 337.521 104.406C347.616 92.9305 357.71 81.4549 368.982 68.6394C370.309 82.9338 363.138 91.5927 355.098 98.9561C347.513 105.904 338.497 111.441 329.785 117.127C324.305 120.704 321.784 123.925 323.132 131.34C325.949 146.826 323.243 162.593 325.491 178.576C328.393 199.268 317.515 217.338 301.757 232.118C294.804 238.639 288.147 246.04 283.635 254.237C281.152 258.751 283.395 265.744 283.507 271.618C288.46 271.171 293.721 271.618 298.319 270.123C323.834 261.808 328.782 240.51 332.593 218.183C333.899 210.521 337.618 203.244 340.329 195.825C340.953 194.116 342.348 192.632 342.765 190.902C346.168 176.635 349.422 162.334 352.911 147.237C368.485 155.601 353.356 165.905 357.431 174.18C377.821 163.398 382.774 142.465 370.265 123.369C367.843 119.666 366.272 112.097 368.394 109.482C376.794 99.1615 373.773 73.4225 373.389 62.7071C382.419 68.9297 380.433 75.8421 381.285 92.3892C385.035 78.3125 389.149 66.7674 403.615 62.6283C405.623 62.0537 407.571 56.5477 407.174 53.6355C406.167 46.2326 407.948 40.7017 415.842 39.7776C423.881 38.8349 427.606 44.1822 429.81 51.2906C431.451 56.5643 434.871 61.2997 436.644 66.5485C437.743 69.7999 437.246 73.5656 437.465 77.1032C434.481 76.0142 431.099 75.4666 428.608 73.716C424.767 71.0226 421.544 67.4975 419.291 65.4523C390.133 75.2986 380.719 95.1759 386.272 125.606C402.073 116.348 417.549 115.864 433.585 119.245C422.528 122.033 411.312 124.368 400.494 127.869C396.864 129.045 391.798 132.996 391.559 136.002C389.981 155.465 378.574 169.031 364.289 181.424C376.361 184.539 377.441 183.628 383.965 175.124C388.688 168.965 392.799 158.48 404.609 157.005C416.419 155.53 421.322 164.678 428.442 170.871C421.156 170.072 413.21 167.148 406.758 169.051C399.729 171.124 394.232 177.884 387.786 182.203C383.487 185.084 378.787 189.227 374.117 189.426C354.826 190.246 341.419 205.463 343.798 226.515C363.671 210.749 378.958 202.843 401.299 217.299C408.983 225.016 409.514 234.35 403.712 245.17C398.699 239.842 399.231 233.455 397.296 229.164C393.991 221.826 382.897 223.856 377.576 226.905C366.082 233.488 353.567 239.94 345.074 249.498C336.726 258.898 330.784 269.595 317.402 273.501C312.654 274.884 308.72 278.904 303.046 282.615C309.322 285.018 313.904 287.053 318.672 288.537C333.134 293.046 333.207 292.937 337.411 278.662C340.091 269.581 351.028 266.833 362.703 273.801C358.962 274.265 350.198 275.026 345.729 275.244C347.201 283.777 347.362 289.836 340.666 296.127C329.301 299.69 327.568 301.342 316.318 301.275C314.854 301.267 313.279 301.034 311.943 300.477C297.408 294.396 295.594 294.814 283.469 307.518C294.634 309.231 316.489 315.721 316.365 317.268C305.607 317.268 294.793 316.603 284.099 317.426C268.264 318.642 259.65 327.832 258.118 343.699C257.766 347.336 257.432 351.06 257.834 354.657C260.806 381.219 262.878 407.94 267.463 434.242C270.31 450.55 276.308 466.476 282.275 482.067C287.566 495.891 300.323 503.126 312.97 509.883C317.426 512.265 321.87 514.68 325.776 516.786C311.764 521.454 298.317 526.114 284.751 530.393C270.918 534.764 258.32 529.198 245.292 525.746C238.614 523.974 231.165 524.927 224.064 524.793C222.244 524.76 220.031 526.051 218.652 525.404C203.3 518.216 187.712 522.47 172.108 523.908C166.8 524.397 161.346 523.403 155.562 521.501C175.679 514.418 198.303 512.299 208.818 490.518L208.627 490.769ZM314.628 118.772C302.944 120.64 301.75 127.834 301.472 136.687C301.189 145.593 302.358 156.997 297.388 162.867C278.984 184.61 265.854 208.575 257.296 235.246C256.971 236.251 255.709 237.023 255.532 238.014C254.386 244.452 253.422 250.923 252.724 255.311C263.491 244.414 274.587 233.482 285.328 222.23C295.337 211.749 306.621 200.558 301.544 185.02C298.294 175.082 300.496 168.328 306.994 162.444C321.289 149.484 318.207 134.552 314.628 118.772ZM269.442 176.055C288.039 160.613 290.67 146.34 279.519 124.097C272.177 109.454 272.177 109.454 262.126 111.428C270.358 122.056 267.618 131.952 260.229 141.52C252.969 150.919 253.837 159.626 262.549 167.793C264.952 170.043 266.801 172.853 269.442 176.055ZM188.668 266.915C184.931 261.67 180.376 254.772 175.221 248.333C173.599 246.308 170.422 244.473 167.858 244.337C158.815 243.855 149.736 244.149 140.331 244.149C144.334 246.82 148.452 250.477 153.277 252.616C164.835 257.737 176.724 262.145 188.668 266.915ZM243.85 198.172C256.166 182.765 255.841 180.373 238.811 162.553C235.75 175.597 236.431 186.757 243.85 198.172ZM235.147 209.635C234.222 209.399 233.302 209.162 232.378 208.925C222.013 228.841 222.013 228.841 227.202 233.793C229.954 225.426 232.549 217.532 235.147 209.635Z" fill="#234D64"/>
<circle cx="243" cy="275" r="50" fill="#84E1ED"/>
<circle cx="349" cy="241" r="40" fill="#E96C6C"/>
<circle cx="342" cy="57" r="40" fill="#E96C6C"/>
<circle cx="60" cy="192" r="40" fill="#E96C6C"/>
<circle cx="164" cy="41" r="40" fill="#E96C6C"/>
<circle cx="189" cy="184" r="40" fill="#3C9EAA"/>
<circle cx="255" cy="41" r="40" fill="#3C9EAA"/>
<circle cx="376" cy="160" r="40" fill="#3C9EAA"/>
<circle cx="40" cy="86" r="40" fill="#3C9EAA"/>
<circle cx="123" cy="275" r="40" fill="#F2B134"/>
<circle cx="277" cy="160" r="40" fill="#F2B134"/>
<circle cx="124" cy="120" r="40" fill="#F2B134"/>
<circle cx="428" cy="74" r="40" fill="#F2B134"/>
<path d="M307.398 58.3672V63H306.438V51.625H310.312C311.495 51.625 312.427 51.9271 313.109 52.5312C313.797 53.1354 314.141 53.9661 314.141 55.0234C314.141 56.0911 313.81 56.9167 313.148 57.5C312.492 58.0781 311.539 58.3672 310.289 58.3672H307.398ZM307.398 57.5547H310.312C311.245 57.5547 311.956 57.3333 312.445 56.8906C312.935 56.4479 313.18 55.8307 313.18 55.0391C313.18 54.2526 312.935 53.6276 312.445 53.1641C311.961 52.6953 311.271 52.4557 310.375 52.4453H307.398V57.5547ZM319.984 55.3438C319.786 55.3073 319.576 55.2891 319.352 55.2891C318.768 55.2891 318.273 55.4531 317.867 55.7812C317.466 56.1042 317.18 56.5755 317.008 57.1953V63H316.078V54.5469H316.992L317.008 55.8906C317.503 54.8906 318.297 54.3906 319.391 54.3906C319.651 54.3906 319.857 54.4245 320.008 54.4922L319.984 55.3438ZM320.797 58.6484C320.797 57.8359 320.953 57.1042 321.266 56.4531C321.583 55.8021 322.029 55.2969 322.602 54.9375C323.18 54.5729 323.833 54.3906 324.562 54.3906C325.688 54.3906 326.599 54.7865 327.297 55.5781C327.995 56.3646 328.344 57.4089 328.344 58.7109V58.9062C328.344 59.724 328.185 60.4609 327.867 61.1172C327.555 61.7682 327.112 62.2708 326.539 62.625C325.966 62.9792 325.312 63.1562 324.578 63.1562C323.458 63.1562 322.547 62.763 321.844 61.9766C321.146 61.1849 320.797 60.138 320.797 58.8359V58.6484ZM321.734 58.9062C321.734 59.9167 321.995 60.7474 322.516 61.3984C323.042 62.0443 323.729 62.3672 324.578 62.3672C325.422 62.3672 326.104 62.0443 326.625 61.3984C327.151 60.7474 327.414 59.8906 327.414 58.8281V58.6484C327.414 58.0026 327.294 57.4115 327.055 56.875C326.815 56.3385 326.479 55.9245 326.047 55.6328C325.615 55.3359 325.12 55.1875 324.562 55.1875C323.729 55.1875 323.049 55.5156 322.523 56.1719C321.997 56.8229 321.734 57.6771 321.734 58.7344V58.9062ZM331.133 54.5469L331.164 55.9219C331.477 55.4115 331.867 55.0286 332.336 54.7734C332.805 54.5182 333.326 54.3906 333.898 54.3906C335.232 54.3906 336.078 54.9375 336.438 56.0312C336.74 55.5052 337.143 55.1016 337.648 54.8203C338.154 54.5339 338.711 54.3906 339.32 54.3906C341.133 54.3906 342.057 55.3802 342.094 57.3594V63H341.156V57.4297C341.151 56.6745 340.987 56.1146 340.664 55.75C340.346 55.3854 339.826 55.2031 339.102 55.2031C338.43 55.2135 337.862 55.4323 337.398 55.8594C336.935 56.2812 336.677 56.7969 336.625 57.4062V63H335.688V57.3594C335.682 56.6354 335.51 56.0964 335.172 55.7422C334.839 55.3828 334.323 55.2031 333.625 55.2031C333.036 55.2031 332.531 55.3724 332.109 55.7109C331.688 56.0443 331.375 56.5417 331.172 57.2031V63H330.234V54.5469H331.133ZM343.953 58.6484C343.953 57.8359 344.109 57.1042 344.422 56.4531C344.74 55.8021 345.185 55.2969 345.758 54.9375C346.336 54.5729 346.99 54.3906 347.719 54.3906C348.844 54.3906 349.755 54.7865 350.453 55.5781C351.151 56.3646 351.5 57.4089 351.5 58.7109V58.9062C351.5 59.724 351.341 60.4609 351.023 61.1172C350.711 61.7682 350.268 62.2708 349.695 62.625C349.122 62.9792 348.469 63.1562 347.734 63.1562C346.615 63.1562 345.703 62.763 345 61.9766C344.302 61.1849 343.953 60.138 343.953 58.8359V58.6484ZM344.891 58.9062C344.891 59.9167 345.151 60.7474 345.672 61.3984C346.198 62.0443 346.885 62.3672 347.734 62.3672C348.578 62.3672 349.26 62.0443 349.781 61.3984C350.307 60.7474 350.57 59.8906 350.57 58.8281V58.6484C350.57 58.0026 350.451 57.4115 350.211 56.875C349.971 56.3385 349.635 55.9245 349.203 55.6328C348.771 55.3359 348.276 55.1875 347.719 55.1875C346.885 55.1875 346.206 55.5156 345.68 56.1719C345.154 56.8229 344.891 57.6771 344.891 58.7344V58.9062ZM354.891 52.3828V54.5469H356.641V55.3125H354.891V60.9453C354.891 61.4141 354.974 61.763 355.141 61.9922C355.312 62.2214 355.596 62.3359 355.992 62.3359C356.148 62.3359 356.401 62.3099 356.75 62.2578L356.789 63.0234C356.544 63.112 356.211 63.1562 355.789 63.1562C355.148 63.1562 354.682 62.9714 354.391 62.6016C354.099 62.2266 353.953 61.6771 353.953 60.9531V55.3125H352.398V54.5469H353.953V52.3828H354.891ZM359.625 63H358.688V54.5469H359.625V63ZM358.523 52.1016C358.523 51.9245 358.581 51.776 358.695 51.6562C358.81 51.5312 358.966 51.4688 359.164 51.4688C359.362 51.4688 359.518 51.5312 359.633 51.6562C359.753 51.776 359.812 51.9245 359.812 52.1016C359.812 52.2786 359.753 52.4271 359.633 52.5469C359.518 52.6667 359.362 52.7266 359.164 52.7266C358.966 52.7266 358.81 52.6667 358.695 52.5469C358.581 52.4271 358.523 52.2786 358.523 52.1016ZM361.656 58.6484C361.656 57.8359 361.812 57.1042 362.125 56.4531C362.443 55.8021 362.888 55.2969 363.461 54.9375C364.039 54.5729 364.693 54.3906 365.422 54.3906C366.547 54.3906 367.458 54.7865 368.156 55.5781C368.854 56.3646 369.203 57.4089 369.203 58.7109V58.9062C369.203 59.724 369.044 60.4609 368.727 61.1172C368.414 61.7682 367.971 62.2708 367.398 62.625C366.826 62.9792 366.172 63.1562 365.438 63.1562C364.318 63.1562 363.406 62.763 362.703 61.9766C362.005 61.1849 361.656 60.138 361.656 58.8359V58.6484ZM362.594 58.9062C362.594 59.9167 362.854 60.7474 363.375 61.3984C363.901 62.0443 364.589 62.3672 365.438 62.3672C366.281 62.3672 366.964 62.0443 367.484 61.3984C368.01 60.7474 368.273 59.8906 368.273 58.8281V58.6484C368.273 58.0026 368.154 57.4115 367.914 56.875C367.674 56.3385 367.339 55.9245 366.906 55.6328C366.474 55.3359 365.979 55.1875 365.422 55.1875C364.589 55.1875 363.909 55.5156 363.383 56.1719C362.857 56.8229 362.594 57.6771 362.594 58.7344V58.9062ZM372.031 54.5469L372.062 55.9922C372.38 55.4714 372.776 55.0755 373.25 54.8047C373.724 54.5286 374.247 54.3906 374.82 54.3906C375.727 54.3906 376.401 54.6458 376.844 55.1562C377.286 55.6667 377.51 56.4323 377.516 57.4531V63H376.586V57.4453C376.581 56.6901 376.419 56.1276 376.102 55.7578C375.789 55.388 375.286 55.2031 374.594 55.2031C374.016 55.2031 373.503 55.3854 373.055 55.75C372.612 56.1094 372.284 56.5964 372.07 57.2109V63H371.141V54.5469H372.031Z" fill="#EDF4F5"/>
<path d="M5.71094 81.625L9.90625 91.6641L14.1172 81.625H15.3984V93H14.4375V88.0469L14.5156 82.9688L10.2812 93H9.53906L5.32031 83.0078L5.39844 88.0156V93H4.4375V81.625H5.71094ZM23.3984 93C23.3047 92.7344 23.2448 92.3411 23.2188 91.8203C22.8906 92.2474 22.4714 92.5781 21.9609 92.8125C21.4557 93.0417 20.9193 93.1562 20.3516 93.1562C19.5391 93.1562 18.8802 92.9297 18.375 92.4766C17.875 92.0234 17.625 91.4505 17.625 90.7578C17.625 89.9349 17.9661 89.2839 18.6484 88.8047C19.3359 88.3255 20.2917 88.0859 21.5156 88.0859H23.2109V87.125C23.2109 86.5208 23.0234 86.0469 22.6484 85.7031C22.2786 85.3542 21.737 85.1797 21.0234 85.1797C20.3724 85.1797 19.8333 85.3464 19.4062 85.6797C18.9792 86.013 18.7656 86.4141 18.7656 86.8828L17.8281 86.875C17.8281 86.2031 18.1406 85.6224 18.7656 85.1328C19.3906 84.638 20.1589 84.3906 21.0703 84.3906C22.013 84.3906 22.7552 84.6276 23.2969 85.1016C23.8438 85.5703 24.125 86.2266 24.1406 87.0703V91.0703C24.1406 91.888 24.2266 92.5 24.3984 92.9062V93H23.3984ZM20.4609 92.3281C21.0859 92.3281 21.6432 92.1771 22.1328 91.875C22.6276 91.5729 22.987 91.1693 23.2109 90.6641V88.8047H21.5391C20.6068 88.8151 19.8776 88.987 19.3516 89.3203C18.8255 89.6484 18.5625 90.1016 18.5625 90.6797C18.5625 91.1536 18.737 91.5469 19.0859 91.8594C19.4401 92.1719 19.8984 92.3281 20.4609 92.3281ZM27.6875 93H26.75V84.5469H27.6875V93ZM26.5859 82.1016C26.5859 81.9245 26.6432 81.776 26.7578 81.6562C26.8724 81.5312 27.0286 81.4688 27.2266 81.4688C27.4245 81.4688 27.5807 81.5312 27.6953 81.6562C27.8151 81.776 27.875 81.9245 27.875 82.1016C27.875 82.2786 27.8151 82.4271 27.6953 82.5469C27.5807 82.6667 27.4245 82.7266 27.2266 82.7266C27.0286 82.7266 26.8724 82.6667 26.7578 82.5469C26.6432 82.4271 26.5859 82.2786 26.5859 82.1016ZM31.125 84.5469L31.1562 85.9922C31.474 85.4714 31.8698 85.0755 32.3438 84.8047C32.8177 84.5286 33.3411 84.3906 33.9141 84.3906C34.8203 84.3906 35.4948 84.6458 35.9375 85.1562C36.3802 85.6667 36.6042 86.4323 36.6094 87.4531V93H35.6797V87.4453C35.6745 86.6901 35.513 86.1276 35.1953 85.7578C34.8828 85.388 34.3802 85.2031 33.6875 85.2031C33.1094 85.2031 32.5964 85.3854 32.1484 85.75C31.7057 86.1094 31.3776 86.5964 31.1641 87.2109V93H30.2344V84.5469H31.125ZM40.4844 82.3828V84.5469H42.2344V85.3125H40.4844V90.9453C40.4844 91.4141 40.5677 91.763 40.7344 91.9922C40.9062 92.2214 41.1901 92.3359 41.5859 92.3359C41.7422 92.3359 41.9948 92.3099 42.3438 92.2578L42.3828 93.0234C42.138 93.112 41.8047 93.1562 41.3828 93.1562C40.7422 93.1562 40.276 92.9714 39.9844 92.6016C39.6927 92.2266 39.5469 91.6771 39.5469 90.9531V85.3125H37.9922V84.5469H39.5469V82.3828H40.4844ZM49.5078 93C49.4141 92.7344 49.3542 92.3411 49.3281 91.8203C49 92.2474 48.5807 92.5781 48.0703 92.8125C47.5651 93.0417 47.0286 93.1562 46.4609 93.1562C45.6484 93.1562 44.9896 92.9297 44.4844 92.4766C43.9844 92.0234 43.7344 91.4505 43.7344 90.7578C43.7344 89.9349 44.0755 89.2839 44.7578 88.8047C45.4453 88.3255 46.401 88.0859 47.625 88.0859H49.3203V87.125C49.3203 86.5208 49.1328 86.0469 48.7578 85.7031C48.388 85.3542 47.8464 85.1797 47.1328 85.1797C46.4818 85.1797 45.9427 85.3464 45.5156 85.6797C45.0885 86.013 44.875 86.4141 44.875 86.8828L43.9375 86.875C43.9375 86.2031 44.25 85.6224 44.875 85.1328C45.5 84.638 46.2682 84.3906 47.1797 84.3906C48.1224 84.3906 48.8646 84.6276 49.4062 85.1016C49.9531 85.5703 50.2344 86.2266 50.25 87.0703V91.0703C50.25 91.888 50.3359 92.5 50.5078 92.9062V93H49.5078ZM46.5703 92.3281C47.1953 92.3281 47.7526 92.1771 48.2422 91.875C48.737 91.5729 49.0964 91.1693 49.3203 90.6641V88.8047H47.6484C46.7161 88.8151 45.987 88.987 45.4609 89.3203C44.9349 89.6484 44.6719 90.1016 44.6719 90.6797C44.6719 91.1536 44.8464 91.5469 45.1953 91.8594C45.5495 92.1719 46.0078 92.3281 46.5703 92.3281ZM53.6406 84.5469L53.6719 85.9922C53.9896 85.4714 54.3854 85.0755 54.8594 84.8047C55.3333 84.5286 55.8568 84.3906 56.4297 84.3906C57.3359 84.3906 58.0104 84.6458 58.4531 85.1562C58.8958 85.6667 59.1198 86.4323 59.125 87.4531V93H58.1953V87.4453C58.1901 86.6901 58.0286 86.1276 57.7109 85.7578C57.3984 85.388 56.8958 85.2031 56.2031 85.2031C55.625 85.2031 55.112 85.3854 54.6641 85.75C54.2214 86.1094 53.8932 86.5964 53.6797 87.2109V93H52.75V84.5469H53.6406ZM64.6719 92.3672C65.3229 92.3672 65.8672 92.1849 66.3047 91.8203C66.7474 91.4505 66.987 90.974 67.0234 90.3906H67.9219C67.8958 90.9062 67.7344 91.3776 67.4375 91.8047C67.1406 92.2266 66.7448 92.5573 66.25 92.7969C65.7604 93.0365 65.2344 93.1562 64.6719 93.1562C63.5625 93.1562 62.6823 92.7708 62.0312 92C61.3854 91.2292 61.0625 90.1927 61.0625 88.8906V88.6094C61.0625 87.776 61.2083 87.0391 61.5 86.3984C61.7917 85.7578 62.2083 85.263 62.75 84.9141C63.2969 84.5651 63.9349 84.3906 64.6641 84.3906C65.5911 84.3906 66.3542 84.6667 66.9531 85.2188C67.5573 85.7708 67.8802 86.4974 67.9219 87.3984H67.0234C66.9818 86.737 66.7422 86.2031 66.3047 85.7969C65.8724 85.3906 65.3255 85.1875 64.6641 85.1875C63.8203 85.1875 63.1641 85.4922 62.6953 86.1016C62.2318 86.7109 62 87.5651 62 88.6641V88.9375C62 90.0156 62.2318 90.8568 62.6953 91.4609C63.1641 92.0651 63.8229 92.3672 64.6719 92.3672ZM73.0703 93.1562C72.3516 93.1562 71.7005 92.9792 71.1172 92.625C70.5391 92.2708 70.0885 91.7786 69.7656 91.1484C69.4427 90.513 69.2812 89.8021 69.2812 89.0156V88.6797C69.2812 87.8672 69.4375 87.1354 69.75 86.4844C70.0677 85.8333 70.5078 85.3229 71.0703 84.9531C71.6328 84.5781 72.2422 84.3906 72.8984 84.3906C73.9245 84.3906 74.737 84.7422 75.3359 85.4453C75.9401 86.1432 76.2422 87.099 76.2422 88.3125V88.8359H70.2109V89.0156C70.2109 89.974 70.4844 90.7734 71.0312 91.4141C71.5833 92.0495 72.276 92.3672 73.1094 92.3672C73.6094 92.3672 74.0495 92.276 74.4297 92.0938C74.8151 91.9115 75.1641 91.6198 75.4766 91.2188L76.0625 91.6641C75.375 92.6589 74.3776 93.1562 73.0703 93.1562ZM72.8984 85.1875C72.1953 85.1875 71.6016 85.4453 71.1172 85.9609C70.638 86.4766 70.3464 87.1693 70.2422 88.0391H75.3125V87.9375C75.2865 87.125 75.0547 86.4635 74.6172 85.9531C74.1797 85.4427 73.6068 85.1875 72.8984 85.1875Z" fill="#EDF4F5"/>
<path d="M218.539 277.93L218.891 279.695L219.32 278.008L221.789 269.625H222.656L225.094 278.008L225.516 279.711L225.891 277.93L227.945 269.625H228.93L226.016 281H225.094L222.516 272.102L222.227 270.977L221.945 272.102L219.305 281H218.383L215.477 269.625H216.461L218.539 277.93ZM233.586 281.156C232.867 281.156 232.216 280.979 231.633 280.625C231.055 280.271 230.604 279.779 230.281 279.148C229.958 278.513 229.797 277.802 229.797 277.016V276.68C229.797 275.867 229.953 275.135 230.266 274.484C230.583 273.833 231.023 273.323 231.586 272.953C232.148 272.578 232.758 272.391 233.414 272.391C234.44 272.391 235.253 272.742 235.852 273.445C236.456 274.143 236.758 275.099 236.758 276.312V276.836H230.727V277.016C230.727 277.974 231 278.773 231.547 279.414C232.099 280.049 232.792 280.367 233.625 280.367C234.125 280.367 234.565 280.276 234.945 280.094C235.331 279.911 235.68 279.62 235.992 279.219L236.578 279.664C235.891 280.659 234.893 281.156 233.586 281.156ZM233.414 273.188C232.711 273.188 232.117 273.445 231.633 273.961C231.154 274.477 230.862 275.169 230.758 276.039H235.828V275.938C235.802 275.125 235.57 274.464 235.133 273.953C234.695 273.443 234.122 273.188 233.414 273.188ZM245.383 276.859C245.383 278.177 245.091 279.224 244.508 280C243.924 280.771 243.141 281.156 242.156 281.156C240.979 281.156 240.089 280.719 239.484 279.844L239.445 281H238.57V269H239.5V273.773C240.094 272.852 240.974 272.391 242.141 272.391C243.141 272.391 243.93 272.773 244.508 273.539C245.091 274.299 245.383 275.359 245.383 276.719V276.859ZM244.445 276.695C244.445 275.581 244.229 274.721 243.797 274.117C243.365 273.508 242.755 273.203 241.969 273.203C241.37 273.203 240.862 273.352 240.445 273.648C240.029 273.94 239.714 274.37 239.5 274.938V278.75C239.969 279.812 240.797 280.344 241.984 280.344C242.755 280.344 243.357 280.039 243.789 279.43C244.227 278.82 244.445 277.909 244.445 276.695ZM252.516 278.852C252.516 278.388 252.328 278.016 251.953 277.734C251.583 277.453 251.023 277.234 250.273 277.078C249.523 276.917 248.94 276.734 248.523 276.531C248.112 276.323 247.805 276.07 247.602 275.773C247.404 275.477 247.305 275.117 247.305 274.695C247.305 274.029 247.583 273.479 248.141 273.047C248.698 272.609 249.411 272.391 250.281 272.391C251.224 272.391 251.979 272.625 252.547 273.094C253.12 273.557 253.406 274.164 253.406 274.914H252.469C252.469 274.419 252.26 274.008 251.844 273.68C251.432 273.352 250.911 273.188 250.281 273.188C249.667 273.188 249.172 273.326 248.797 273.602C248.427 273.872 248.242 274.227 248.242 274.664C248.242 275.086 248.396 275.414 248.703 275.648C249.016 275.878 249.581 276.089 250.398 276.281C251.221 276.474 251.836 276.68 252.242 276.898C252.654 277.117 252.958 277.38 253.156 277.688C253.354 277.995 253.453 278.367 253.453 278.805C253.453 279.518 253.164 280.089 252.586 280.516C252.013 280.943 251.263 281.156 250.336 281.156C249.352 281.156 248.552 280.919 247.938 280.445C247.328 279.966 247.023 279.362 247.023 278.633H247.961C247.997 279.18 248.227 279.607 248.648 279.914C249.076 280.216 249.638 280.367 250.336 280.367C250.987 280.367 251.513 280.224 251.914 279.938C252.315 279.651 252.516 279.289 252.516 278.852ZM256.609 281H255.672V272.547H256.609V281ZM255.508 270.102C255.508 269.924 255.565 269.776 255.68 269.656C255.794 269.531 255.951 269.469 256.148 269.469C256.346 269.469 256.503 269.531 256.617 269.656C256.737 269.776 256.797 269.924 256.797 270.102C256.797 270.279 256.737 270.427 256.617 270.547C256.503 270.667 256.346 270.727 256.148 270.727C255.951 270.727 255.794 270.667 255.68 270.547C255.565 270.427 255.508 270.279 255.508 270.102ZM260.609 270.383V272.547H262.359V273.312H260.609V278.945C260.609 279.414 260.693 279.763 260.859 279.992C261.031 280.221 261.315 280.336 261.711 280.336C261.867 280.336 262.12 280.31 262.469 280.258L262.508 281.023C262.263 281.112 261.93 281.156 261.508 281.156C260.867 281.156 260.401 280.971 260.109 280.602C259.818 280.227 259.672 279.677 259.672 278.953V273.312H258.117V272.547H259.672V270.383H260.609ZM267.57 281.156C266.852 281.156 266.201 280.979 265.617 280.625C265.039 280.271 264.589 279.779 264.266 279.148C263.943 278.513 263.781 277.802 263.781 277.016V276.68C263.781 275.867 263.938 275.135 264.25 274.484C264.568 273.833 265.008 273.323 265.57 272.953C266.133 272.578 266.742 272.391 267.398 272.391C268.424 272.391 269.237 272.742 269.836 273.445C270.44 274.143 270.742 275.099 270.742 276.312V276.836H264.711V277.016C264.711 277.974 264.984 278.773 265.531 279.414C266.083 280.049 266.776 280.367 267.609 280.367C268.109 280.367 268.549 280.276 268.93 280.094C269.315 279.911 269.664 279.62 269.977 279.219L270.562 279.664C269.875 280.659 268.878 281.156 267.57 281.156ZM267.398 273.188C266.695 273.188 266.102 273.445 265.617 273.961C265.138 274.477 264.846 275.169 264.742 276.039H269.812V275.938C269.786 275.125 269.555 274.464 269.117 273.953C268.68 273.443 268.107 273.188 267.398 273.188Z" fill="#234D64"/>
<path d="M47.6094 197H46.6484V185.625H47.6094V197ZM50.1094 192.695C50.1094 191.383 50.401 190.339 50.9844 189.562C51.5729 188.781 52.3698 188.391 53.375 188.391C54.5156 188.391 55.3854 188.841 55.9844 189.742V185H56.9141V197H56.0391L56 195.875C55.401 196.729 54.5208 197.156 53.3594 197.156C52.3854 197.156 51.599 196.766 51 195.984C50.4062 195.198 50.1094 194.138 50.1094 192.805V192.695ZM51.0547 192.859C51.0547 193.938 51.2708 194.789 51.7031 195.414C52.1354 196.034 52.7448 196.344 53.5312 196.344C54.6823 196.344 55.5 195.836 55.9844 194.82V190.852C55.5 189.753 54.6875 189.203 53.5469 189.203C52.7604 189.203 52.1484 189.513 51.7109 190.133C51.2734 190.747 51.0547 191.656 51.0547 192.859ZM62.6484 197.156C61.9297 197.156 61.2786 196.979 60.6953 196.625C60.1172 196.271 59.6667 195.779 59.3438 195.148C59.0208 194.513 58.8594 193.802 58.8594 193.016V192.68C58.8594 191.867 59.0156 191.135 59.3281 190.484C59.6458 189.833 60.0859 189.323 60.6484 188.953C61.2109 188.578 61.8203 188.391 62.4766 188.391C63.5026 188.391 64.3151 188.742 64.9141 189.445C65.5182 190.143 65.8203 191.099 65.8203 192.312V192.836H59.7891V193.016C59.7891 193.974 60.0625 194.773 60.6094 195.414C61.1615 196.049 61.8542 196.367 62.6875 196.367C63.1875 196.367 63.6276 196.276 64.0078 196.094C64.3932 195.911 64.7422 195.62 65.0547 195.219L65.6406 195.664C64.9531 196.659 63.9557 197.156 62.6484 197.156ZM62.4766 189.188C61.7734 189.188 61.1797 189.445 60.6953 189.961C60.2161 190.477 59.9245 191.169 59.8203 192.039H64.8906V191.938C64.8646 191.125 64.6328 190.464 64.1953 189.953C63.7578 189.443 63.1849 189.188 62.4766 189.188ZM72.9766 197C72.8828 196.734 72.8229 196.341 72.7969 195.82C72.4688 196.247 72.0495 196.578 71.5391 196.812C71.0339 197.042 70.4974 197.156 69.9297 197.156C69.1172 197.156 68.4583 196.93 67.9531 196.477C67.4531 196.023 67.2031 195.451 67.2031 194.758C67.2031 193.935 67.5443 193.284 68.2266 192.805C68.9141 192.326 69.8698 192.086 71.0938 192.086H72.7891V191.125C72.7891 190.521 72.6016 190.047 72.2266 189.703C71.8568 189.354 71.3151 189.18 70.6016 189.18C69.9505 189.18 69.4115 189.346 68.9844 189.68C68.5573 190.013 68.3438 190.414 68.3438 190.883L67.4062 190.875C67.4062 190.203 67.7188 189.622 68.3438 189.133C68.9688 188.638 69.737 188.391 70.6484 188.391C71.5911 188.391 72.3333 188.628 72.875 189.102C73.4219 189.57 73.7031 190.227 73.7188 191.07V195.07C73.7188 195.888 73.8047 196.5 73.9766 196.906V197H72.9766ZM70.0391 196.328C70.6641 196.328 71.2214 196.177 71.7109 195.875C72.2057 195.573 72.5651 195.169 72.7891 194.664V192.805H71.1172C70.1849 192.815 69.4557 192.987 68.9297 193.32C68.4036 193.648 68.1406 194.102 68.1406 194.68C68.1406 195.154 68.3151 195.547 68.6641 195.859C69.0182 196.172 69.4766 196.328 70.0391 196.328Z" fill="#EDF4F5"/>
<path d="M156.875 45.2031C156.875 44.5729 156.654 44.0755 156.211 43.7109C155.768 43.3411 154.958 42.9922 153.781 42.6641C152.604 42.3307 151.745 41.9688 151.203 41.5781C150.432 41.026 150.047 40.3021 150.047 39.4062C150.047 38.5365 150.404 37.8307 151.117 37.2891C151.836 36.7422 152.753 36.4688 153.867 36.4688C154.622 36.4688 155.297 36.6146 155.891 36.9062C156.49 37.1979 156.953 37.6042 157.281 38.125C157.609 38.6458 157.773 39.2266 157.773 39.8672H156.805C156.805 39.0911 156.539 38.4688 156.008 38C155.477 37.526 154.763 37.2891 153.867 37.2891C152.997 37.2891 152.305 37.4844 151.789 37.875C151.273 38.2604 151.016 38.7656 151.016 39.3906C151.016 39.9688 151.247 40.4401 151.711 40.8047C152.174 41.1693 152.917 41.4922 153.938 41.7734C154.958 42.0495 155.732 42.3385 156.258 42.6406C156.784 42.9375 157.18 43.2943 157.445 43.7109C157.711 44.1276 157.844 44.6198 157.844 45.1875C157.844 46.0833 157.484 46.8021 156.766 47.3438C156.052 47.8854 155.109 48.1562 153.938 48.1562C153.135 48.1562 152.398 48.013 151.727 47.7266C151.06 47.4401 150.552 47.0391 150.203 46.5234C149.859 46.0078 149.688 45.4167 149.688 44.75H150.648C150.648 45.5521 150.948 46.1849 151.547 46.6484C152.146 47.112 152.943 47.3438 153.938 47.3438C154.823 47.3438 155.534 47.1484 156.07 46.7578C156.607 46.3672 156.875 45.849 156.875 45.2031ZM166.203 42.5469H160.883V47.1875H167V48H159.922V36.625H166.961V37.4453H160.883V41.7344H166.203V42.5469ZM177.438 42.9297C177.438 43.9766 177.255 44.8958 176.891 45.6875C176.531 46.4792 176.016 47.0885 175.344 47.5156C174.672 47.9427 173.896 48.1562 173.016 48.1562C171.688 48.1562 170.615 47.6823 169.797 46.7344C168.979 45.7812 168.57 44.4974 168.57 42.8828V41.7109C168.57 40.6745 168.753 39.7578 169.117 38.9609C169.487 38.1589 170.008 37.5443 170.68 37.1172C171.352 36.6849 172.125 36.4688 173 36.4688C173.875 36.4688 174.646 36.6797 175.312 37.1016C175.984 37.5234 176.503 38.1198 176.867 38.8906C177.232 39.6615 177.422 40.5547 177.438 41.5703V42.9297ZM176.477 41.6953C176.477 40.3255 176.167 39.2526 175.547 38.4766C174.927 37.7005 174.078 37.3125 173 37.3125C171.943 37.3125 171.099 37.7031 170.469 38.4844C169.844 39.2604 169.531 40.3464 169.531 41.7422V42.9297C169.531 44.2786 169.844 45.349 170.469 46.1406C171.094 46.9271 171.943 47.3203 173.016 47.3203C174.104 47.3203 174.953 46.9323 175.562 46.1562C176.172 45.375 176.477 44.2891 176.477 42.8984V41.6953Z" fill="#EDF4F5"/>
<path d="M171.867 190H170.898V184.547H164.398V190H163.438V178.625H164.398V183.734H170.898V178.625H171.867V190ZM174.031 185.648C174.031 184.836 174.188 184.104 174.5 183.453C174.818 182.802 175.263 182.297 175.836 181.938C176.414 181.573 177.068 181.391 177.797 181.391C178.922 181.391 179.833 181.786 180.531 182.578C181.229 183.365 181.578 184.409 181.578 185.711V185.906C181.578 186.724 181.419 187.461 181.102 188.117C180.789 188.768 180.346 189.271 179.773 189.625C179.201 189.979 178.547 190.156 177.812 190.156C176.693 190.156 175.781 189.763 175.078 188.977C174.38 188.185 174.031 187.138 174.031 185.836V185.648ZM174.969 185.906C174.969 186.917 175.229 187.747 175.75 188.398C176.276 189.044 176.964 189.367 177.812 189.367C178.656 189.367 179.339 189.044 179.859 188.398C180.385 187.747 180.648 186.891 180.648 185.828V185.648C180.648 185.003 180.529 184.411 180.289 183.875C180.049 183.339 179.714 182.924 179.281 182.633C178.849 182.336 178.354 182.188 177.797 182.188C176.964 182.188 176.284 182.516 175.758 183.172C175.232 183.823 174.969 184.677 174.969 185.734V185.906ZM188.578 187.852C188.578 187.388 188.391 187.016 188.016 186.734C187.646 186.453 187.086 186.234 186.336 186.078C185.586 185.917 185.003 185.734 184.586 185.531C184.174 185.323 183.867 185.07 183.664 184.773C183.466 184.477 183.367 184.117 183.367 183.695C183.367 183.029 183.646 182.479 184.203 182.047C184.76 181.609 185.474 181.391 186.344 181.391C187.286 181.391 188.042 181.625 188.609 182.094C189.182 182.557 189.469 183.164 189.469 183.914H188.531C188.531 183.419 188.323 183.008 187.906 182.68C187.495 182.352 186.974 182.188 186.344 182.188C185.729 182.188 185.234 182.326 184.859 182.602C184.49 182.872 184.305 183.227 184.305 183.664C184.305 184.086 184.458 184.414 184.766 184.648C185.078 184.878 185.643 185.089 186.461 185.281C187.284 185.474 187.898 185.68 188.305 185.898C188.716 186.117 189.021 186.38 189.219 186.688C189.417 186.995 189.516 187.367 189.516 187.805C189.516 188.518 189.227 189.089 188.648 189.516C188.076 189.943 187.326 190.156 186.398 190.156C185.414 190.156 184.615 189.919 184 189.445C183.391 188.966 183.086 188.362 183.086 187.633H184.023C184.06 188.18 184.289 188.607 184.711 188.914C185.138 189.216 185.701 189.367 186.398 189.367C187.049 189.367 187.576 189.224 187.977 188.938C188.378 188.651 188.578 188.289 188.578 187.852ZM193.078 179.383V181.547H194.828V182.312H193.078V187.945C193.078 188.414 193.161 188.763 193.328 188.992C193.5 189.221 193.784 189.336 194.18 189.336C194.336 189.336 194.589 189.31 194.938 189.258L194.977 190.023C194.732 190.112 194.398 190.156 193.977 190.156C193.336 190.156 192.87 189.971 192.578 189.602C192.286 189.227 192.141 188.677 192.141 187.953V182.312H190.586V181.547H192.141V179.383H193.078ZM197.812 190H196.875V181.547H197.812V190ZM196.711 179.102C196.711 178.924 196.768 178.776 196.883 178.656C196.997 178.531 197.154 178.469 197.352 178.469C197.549 178.469 197.706 178.531 197.82 178.656C197.94 178.776 198 178.924 198 179.102C198 179.279 197.94 179.427 197.82 179.547C197.706 179.667 197.549 179.727 197.352 179.727C197.154 179.727 196.997 179.667 196.883 179.547C196.768 179.427 196.711 179.279 196.711 179.102ZM201.25 181.547L201.281 182.992C201.599 182.471 201.995 182.076 202.469 181.805C202.943 181.529 203.466 181.391 204.039 181.391C204.945 181.391 205.62 181.646 206.062 182.156C206.505 182.667 206.729 183.432 206.734 184.453V190H205.805V184.445C205.799 183.69 205.638 183.128 205.32 182.758C205.008 182.388 204.505 182.203 203.812 182.203C203.234 182.203 202.721 182.385 202.273 182.75C201.831 183.109 201.503 183.596 201.289 184.211V190H200.359V181.547H201.25ZM208.781 185.695C208.781 184.372 209.073 183.326 209.656 182.555C210.245 181.779 211.042 181.391 212.047 181.391C213.198 181.391 214.073 181.849 214.672 182.766L214.719 181.547H215.594V189.828C215.594 190.917 215.289 191.779 214.68 192.414C214.07 193.049 213.245 193.367 212.203 193.367C211.615 193.367 211.052 193.234 210.516 192.969C209.984 192.708 209.565 192.359 209.258 191.922L209.781 191.359C210.443 192.172 211.229 192.578 212.141 192.578C212.922 192.578 213.531 192.346 213.969 191.883C214.406 191.424 214.633 190.786 214.648 189.969V188.906C214.049 189.74 213.177 190.156 212.031 190.156C211.052 190.156 210.266 189.766 209.672 188.984C209.078 188.203 208.781 187.148 208.781 185.82V185.695ZM209.727 185.859C209.727 186.938 209.943 187.789 210.375 188.414C210.807 189.034 211.417 189.344 212.203 189.344C213.354 189.344 214.169 188.828 214.648 187.797V183.867C214.43 183.326 214.115 182.914 213.703 182.633C213.292 182.346 212.797 182.203 212.219 182.203C211.432 182.203 210.82 182.513 210.383 183.133C209.945 183.747 209.727 184.656 209.727 185.859Z" fill="#EDF4F5"/>
<path d="M100.438 280V268.625H103.617C104.549 268.625 105.385 268.839 106.125 269.266C106.865 269.688 107.44 270.294 107.852 271.086C108.268 271.878 108.477 272.779 108.477 273.789V274.836C108.477 275.852 108.271 276.753 107.859 277.539C107.448 278.326 106.867 278.932 106.117 279.359C105.372 279.786 104.516 280 103.547 280H100.438ZM101.398 269.445V279.188H103.555C104.753 279.188 105.714 278.792 106.438 278C107.161 277.203 107.523 276.128 107.523 274.773V273.773C107.523 272.466 107.167 271.419 106.453 270.633C105.74 269.846 104.799 269.451 103.633 269.445H101.398ZM113.977 280.156C113.258 280.156 112.607 279.979 112.023 279.625C111.445 279.271 110.995 278.779 110.672 278.148C110.349 277.513 110.188 276.802 110.188 276.016V275.68C110.188 274.867 110.344 274.135 110.656 273.484C110.974 272.833 111.414 272.323 111.977 271.953C112.539 271.578 113.148 271.391 113.805 271.391C114.831 271.391 115.643 271.742 116.242 272.445C116.846 273.143 117.148 274.099 117.148 275.312V275.836H111.117V276.016C111.117 276.974 111.391 277.773 111.938 278.414C112.49 279.049 113.182 279.367 114.016 279.367C114.516 279.367 114.956 279.276 115.336 279.094C115.721 278.911 116.07 278.62 116.383 278.219L116.969 278.664C116.281 279.659 115.284 280.156 113.977 280.156ZM113.805 272.188C113.102 272.188 112.508 272.445 112.023 272.961C111.544 273.477 111.253 274.169 111.148 275.039H116.219V274.938C116.193 274.125 115.961 273.464 115.523 272.953C115.086 272.443 114.513 272.188 113.805 272.188ZM124.031 277.852C124.031 277.388 123.844 277.016 123.469 276.734C123.099 276.453 122.539 276.234 121.789 276.078C121.039 275.917 120.456 275.734 120.039 275.531C119.628 275.323 119.32 275.07 119.117 274.773C118.919 274.477 118.82 274.117 118.82 273.695C118.82 273.029 119.099 272.479 119.656 272.047C120.214 271.609 120.927 271.391 121.797 271.391C122.74 271.391 123.495 271.625 124.062 272.094C124.635 272.557 124.922 273.164 124.922 273.914H123.984C123.984 273.419 123.776 273.008 123.359 272.68C122.948 272.352 122.427 272.188 121.797 272.188C121.182 272.188 120.688 272.326 120.312 272.602C119.943 272.872 119.758 273.227 119.758 273.664C119.758 274.086 119.911 274.414 120.219 274.648C120.531 274.878 121.096 275.089 121.914 275.281C122.737 275.474 123.352 275.68 123.758 275.898C124.169 276.117 124.474 276.38 124.672 276.688C124.87 276.995 124.969 277.367 124.969 277.805C124.969 278.518 124.68 279.089 124.102 279.516C123.529 279.943 122.779 280.156 121.852 280.156C120.867 280.156 120.068 279.919 119.453 279.445C118.844 278.966 118.539 278.362 118.539 277.633H119.477C119.513 278.18 119.742 278.607 120.164 278.914C120.591 279.216 121.154 279.367 121.852 279.367C122.503 279.367 123.029 279.224 123.43 278.938C123.831 278.651 124.031 278.289 124.031 277.852ZM128.125 280H127.188V271.547H128.125V280ZM127.023 269.102C127.023 268.924 127.081 268.776 127.195 268.656C127.31 268.531 127.466 268.469 127.664 268.469C127.862 268.469 128.018 268.531 128.133 268.656C128.253 268.776 128.312 268.924 128.312 269.102C128.312 269.279 128.253 269.427 128.133 269.547C128.018 269.667 127.862 269.727 127.664 269.727C127.466 269.727 127.31 269.667 127.195 269.547C127.081 269.427 127.023 269.279 127.023 269.102ZM130.297 275.695C130.297 274.372 130.589 273.326 131.172 272.555C131.76 271.779 132.557 271.391 133.562 271.391C134.714 271.391 135.589 271.849 136.188 272.766L136.234 271.547H137.109V279.828C137.109 280.917 136.805 281.779 136.195 282.414C135.586 283.049 134.76 283.367 133.719 283.367C133.13 283.367 132.568 283.234 132.031 282.969C131.5 282.708 131.081 282.359 130.773 281.922L131.297 281.359C131.958 282.172 132.745 282.578 133.656 282.578C134.438 282.578 135.047 282.346 135.484 281.883C135.922 281.424 136.148 280.786 136.164 279.969V278.906C135.565 279.74 134.693 280.156 133.547 280.156C132.568 280.156 131.781 279.766 131.188 278.984C130.594 278.203 130.297 277.148 130.297 275.82V275.695ZM131.242 275.859C131.242 276.938 131.458 277.789 131.891 278.414C132.323 279.034 132.932 279.344 133.719 279.344C134.87 279.344 135.685 278.828 136.164 277.797V273.867C135.945 273.326 135.63 272.914 135.219 272.633C134.807 272.346 134.312 272.203 133.734 272.203C132.948 272.203 132.336 272.513 131.898 273.133C131.461 273.747 131.242 274.656 131.242 275.859ZM140.438 271.547L140.469 272.992C140.786 272.471 141.182 272.076 141.656 271.805C142.13 271.529 142.654 271.391 143.227 271.391C144.133 271.391 144.807 271.646 145.25 272.156C145.693 272.667 145.917 273.432 145.922 274.453V280H144.992V274.445C144.987 273.69 144.826 273.128 144.508 272.758C144.195 272.388 143.693 272.203 143 272.203C142.422 272.203 141.909 272.385 141.461 272.75C141.018 273.109 140.69 273.596 140.477 274.211V280H139.547V271.547H140.438Z" fill="#EDF4F5"/>
<path d="M107.156 115.445H103.258V126H102.297V115.445H98.4062V114.625H107.156V115.445ZM111.273 126.156C110.555 126.156 109.904 125.979 109.32 125.625C108.742 125.271 108.292 124.779 107.969 124.148C107.646 123.513 107.484 122.802 107.484 122.016V121.68C107.484 120.867 107.641 120.135 107.953 119.484C108.271 118.833 108.711 118.323 109.273 117.953C109.836 117.578 110.445 117.391 111.102 117.391C112.128 117.391 112.94 117.742 113.539 118.445C114.143 119.143 114.445 120.099 114.445 121.312V121.836H108.414V122.016C108.414 122.974 108.688 123.773 109.234 124.414C109.786 125.049 110.479 125.367 111.312 125.367C111.812 125.367 112.253 125.276 112.633 125.094C113.018 124.911 113.367 124.62 113.68 124.219L114.266 124.664C113.578 125.659 112.581 126.156 111.273 126.156ZM111.102 118.188C110.398 118.188 109.805 118.445 109.32 118.961C108.841 119.477 108.549 120.169 108.445 121.039H113.516V120.938C113.49 120.125 113.258 119.464 112.82 118.953C112.383 118.443 111.81 118.188 111.102 118.188ZM121.328 123.852C121.328 123.388 121.141 123.016 120.766 122.734C120.396 122.453 119.836 122.234 119.086 122.078C118.336 121.917 117.753 121.734 117.336 121.531C116.924 121.323 116.617 121.07 116.414 120.773C116.216 120.477 116.117 120.117 116.117 119.695C116.117 119.029 116.396 118.479 116.953 118.047C117.51 117.609 118.224 117.391 119.094 117.391C120.036 117.391 120.792 117.625 121.359 118.094C121.932 118.557 122.219 119.164 122.219 119.914H121.281C121.281 119.419 121.073 119.008 120.656 118.68C120.245 118.352 119.724 118.188 119.094 118.188C118.479 118.188 117.984 118.326 117.609 118.602C117.24 118.872 117.055 119.227 117.055 119.664C117.055 120.086 117.208 120.414 117.516 120.648C117.828 120.878 118.393 121.089 119.211 121.281C120.034 121.474 120.648 121.68 121.055 121.898C121.466 122.117 121.771 122.38 121.969 122.688C122.167 122.995 122.266 123.367 122.266 123.805C122.266 124.518 121.977 125.089 121.398 125.516C120.826 125.943 120.076 126.156 119.148 126.156C118.164 126.156 117.365 125.919 116.75 125.445C116.141 124.966 115.836 124.362 115.836 123.633H116.773C116.81 124.18 117.039 124.607 117.461 124.914C117.888 125.216 118.451 125.367 119.148 125.367C119.799 125.367 120.326 125.224 120.727 124.938C121.128 124.651 121.328 124.289 121.328 123.852ZM125.828 115.383V117.547H127.578V118.312H125.828V123.945C125.828 124.414 125.911 124.763 126.078 124.992C126.25 125.221 126.534 125.336 126.93 125.336C127.086 125.336 127.339 125.31 127.688 125.258L127.727 126.023C127.482 126.112 127.148 126.156 126.727 126.156C126.086 126.156 125.62 125.971 125.328 125.602C125.036 125.227 124.891 124.677 124.891 123.953V118.312H123.336V117.547H124.891V115.383H125.828ZM130.562 126H129.625V117.547H130.562V126ZM129.461 115.102C129.461 114.924 129.518 114.776 129.633 114.656C129.747 114.531 129.904 114.469 130.102 114.469C130.299 114.469 130.456 114.531 130.57 114.656C130.69 114.776 130.75 114.924 130.75 115.102C130.75 115.279 130.69 115.427 130.57 115.547C130.456 115.667 130.299 115.727 130.102 115.727C129.904 115.727 129.747 115.667 129.633 115.547C129.518 115.427 129.461 115.279 129.461 115.102ZM134 117.547L134.031 118.992C134.349 118.471 134.745 118.076 135.219 117.805C135.693 117.529 136.216 117.391 136.789 117.391C137.695 117.391 138.37 117.646 138.812 118.156C139.255 118.667 139.479 119.432 139.484 120.453V126H138.555V120.445C138.549 119.69 138.388 119.128 138.07 118.758C137.758 118.388 137.255 118.203 136.562 118.203C135.984 118.203 135.471 118.385 135.023 118.75C134.581 119.109 134.253 119.596 134.039 120.211V126H133.109V117.547H134ZM141.531 121.695C141.531 120.372 141.823 119.326 142.406 118.555C142.995 117.779 143.792 117.391 144.797 117.391C145.948 117.391 146.823 117.849 147.422 118.766L147.469 117.547H148.344V125.828C148.344 126.917 148.039 127.779 147.43 128.414C146.82 129.049 145.995 129.367 144.953 129.367C144.365 129.367 143.802 129.234 143.266 128.969C142.734 128.708 142.315 128.359 142.008 127.922L142.531 127.359C143.193 128.172 143.979 128.578 144.891 128.578C145.672 128.578 146.281 128.346 146.719 127.883C147.156 127.424 147.383 126.786 147.398 125.969V124.906C146.799 125.74 145.927 126.156 144.781 126.156C143.802 126.156 143.016 125.766 142.422 124.984C141.828 124.203 141.531 123.148 141.531 121.82V121.695ZM142.477 121.859C142.477 122.938 142.693 123.789 143.125 124.414C143.557 125.034 144.167 125.344 144.953 125.344C146.104 125.344 146.919 124.828 147.398 123.797V119.867C147.18 119.326 146.865 118.914 146.453 118.633C146.042 118.346 145.547 118.203 144.969 118.203C144.182 118.203 143.57 118.513 143.133 119.133C142.695 119.747 142.477 120.656 142.477 121.859Z" fill="#EDF4F5"/>
<path d="M402.875 76.2031C402.875 75.5729 402.654 75.0755 402.211 74.7109C401.768 74.3411 400.958 73.9922 399.781 73.6641C398.604 73.3307 397.745 72.9688 397.203 72.5781C396.432 72.026 396.047 71.3021 396.047 70.4062C396.047 69.5365 396.404 68.8307 397.117 68.2891C397.836 67.7422 398.753 67.4688 399.867 67.4688C400.622 67.4688 401.297 67.6146 401.891 67.9062C402.49 68.1979 402.953 68.6042 403.281 69.125C403.609 69.6458 403.773 70.2266 403.773 70.8672H402.805C402.805 70.0911 402.539 69.4688 402.008 69C401.477 68.526 400.763 68.2891 399.867 68.2891C398.997 68.2891 398.305 68.4844 397.789 68.875C397.273 69.2604 397.016 69.7656 397.016 70.3906C397.016 70.9688 397.247 71.4401 397.711 71.8047C398.174 72.1693 398.917 72.4922 399.938 72.7734C400.958 73.0495 401.732 73.3385 402.258 73.6406C402.784 73.9375 403.18 74.2943 403.445 74.7109C403.711 75.1276 403.844 75.6198 403.844 76.1875C403.844 77.0833 403.484 77.8021 402.766 78.3438C402.052 78.8854 401.109 79.1562 399.938 79.1562C399.135 79.1562 398.398 79.013 397.727 78.7266C397.06 78.4401 396.552 78.0391 396.203 77.5234C395.859 77.0078 395.688 76.4167 395.688 75.75H396.648C396.648 76.5521 396.948 77.1849 397.547 77.6484C398.146 78.112 398.943 78.3438 399.938 78.3438C400.823 78.3438 401.534 78.1484 402.07 77.7578C402.607 77.3672 402.875 76.849 402.875 76.2031ZM407.156 68.3828V70.5469H408.906V71.3125H407.156V76.9453C407.156 77.4141 407.24 77.763 407.406 77.9922C407.578 78.2214 407.862 78.3359 408.258 78.3359C408.414 78.3359 408.667 78.3099 409.016 78.2578L409.055 79.0234C408.81 79.112 408.477 79.1562 408.055 79.1562C407.414 79.1562 406.948 78.9714 406.656 78.6016C406.365 78.2266 406.219 77.6771 406.219 76.9531V71.3125H404.664V70.5469H406.219V68.3828H407.156ZM416.18 79C416.086 78.7344 416.026 78.3411 416 77.8203C415.672 78.2474 415.253 78.5781 414.742 78.8125C414.237 79.0417 413.701 79.1562 413.133 79.1562C412.32 79.1562 411.661 78.9297 411.156 78.4766C410.656 78.0234 410.406 77.4505 410.406 76.7578C410.406 75.9349 410.747 75.2839 411.43 74.8047C412.117 74.3255 413.073 74.0859 414.297 74.0859H415.992V73.125C415.992 72.5208 415.805 72.0469 415.43 71.7031C415.06 71.3542 414.518 71.1797 413.805 71.1797C413.154 71.1797 412.615 71.3464 412.188 71.6797C411.76 72.013 411.547 72.4141 411.547 72.8828L410.609 72.875C410.609 72.2031 410.922 71.6224 411.547 71.1328C412.172 70.638 412.94 70.3906 413.852 70.3906C414.794 70.3906 415.536 70.6276 416.078 71.1016C416.625 71.5703 416.906 72.2266 416.922 73.0703V77.0703C416.922 77.888 417.008 78.5 417.18 78.9062V79H416.18ZM413.242 78.3281C413.867 78.3281 414.424 78.1771 414.914 77.875C415.409 77.5729 415.768 77.1693 415.992 76.6641V74.8047H414.32C413.388 74.8151 412.659 74.987 412.133 75.3203C411.607 75.6484 411.344 76.1016 411.344 76.6797C411.344 77.1536 411.518 77.5469 411.867 77.8594C412.221 78.1719 412.68 78.3281 413.242 78.3281ZM420.875 68.3828V70.5469H422.625V71.3125H420.875V76.9453C420.875 77.4141 420.958 77.763 421.125 77.9922C421.297 78.2214 421.581 78.3359 421.977 78.3359C422.133 78.3359 422.385 78.3099 422.734 78.2578L422.773 79.0234C422.529 79.112 422.195 79.1562 421.773 79.1562C421.133 79.1562 420.667 78.9714 420.375 78.6016C420.083 78.2266 419.938 77.6771 419.938 76.9531V71.3125H418.383V70.5469H419.938V68.3828H420.875ZM425.609 79H424.672V70.5469H425.609V79ZM424.508 68.1016C424.508 67.9245 424.565 67.776 424.68 67.6562C424.794 67.5312 424.951 67.4688 425.148 67.4688C425.346 67.4688 425.503 67.5312 425.617 67.6562C425.737 67.776 425.797 67.9245 425.797 68.1016C425.797 68.2786 425.737 68.4271 425.617 68.5469C425.503 68.6667 425.346 68.7266 425.148 68.7266C424.951 68.7266 424.794 68.6667 424.68 68.5469C424.565 68.4271 424.508 68.2786 424.508 68.1016ZM433.219 76.8516C433.219 76.388 433.031 76.0156 432.656 75.7344C432.286 75.4531 431.727 75.2344 430.977 75.0781C430.227 74.9167 429.643 74.7344 429.227 74.5312C428.815 74.3229 428.508 74.0703 428.305 73.7734C428.107 73.4766 428.008 73.1172 428.008 72.6953C428.008 72.0286 428.286 71.4792 428.844 71.0469C429.401 70.6094 430.115 70.3906 430.984 70.3906C431.927 70.3906 432.682 70.625 433.25 71.0938C433.823 71.5573 434.109 72.1641 434.109 72.9141H433.172C433.172 72.4193 432.964 72.0078 432.547 71.6797C432.135 71.3516 431.615 71.1875 430.984 71.1875C430.37 71.1875 429.875 71.3255 429.5 71.6016C429.13 71.8724 428.945 72.2266 428.945 72.6641C428.945 73.0859 429.099 73.4141 429.406 73.6484C429.719 73.8776 430.284 74.0885 431.102 74.2812C431.924 74.474 432.539 74.6797 432.945 74.8984C433.357 75.1172 433.661 75.3802 433.859 75.6875C434.057 75.9948 434.156 76.3672 434.156 76.8047C434.156 77.5182 433.867 78.0885 433.289 78.5156C432.716 78.9427 431.966 79.1562 431.039 79.1562C430.055 79.1562 429.255 78.9193 428.641 78.4453C428.031 77.9661 427.727 77.362 427.727 76.6328H428.664C428.701 77.1797 428.93 77.6068 429.352 77.9141C429.779 78.2161 430.341 78.3672 431.039 78.3672C431.69 78.3672 432.216 78.224 432.617 77.9375C433.018 77.651 433.219 77.2891 433.219 76.8516ZM437.719 68.3828V70.5469H439.469V71.3125H437.719V76.9453C437.719 77.4141 437.802 77.763 437.969 77.9922C438.141 78.2214 438.424 78.3359 438.82 78.3359C438.977 78.3359 439.229 78.3099 439.578 78.2578L439.617 79.0234C439.372 79.112 439.039 79.1562 438.617 79.1562C437.977 79.1562 437.51 78.9714 437.219 78.6016C436.927 78.2266 436.781 77.6771 436.781 76.9531V71.3125H435.227V70.5469H436.781V68.3828H437.719ZM442.453 79H441.516V70.5469H442.453V79ZM441.352 68.1016C441.352 67.9245 441.409 67.776 441.523 67.6562C441.638 67.5312 441.794 67.4688 441.992 67.4688C442.19 67.4688 442.346 67.5312 442.461 67.6562C442.581 67.776 442.641 67.9245 442.641 68.1016C442.641 68.2786 442.581 68.4271 442.461 68.5469C442.346 68.6667 442.19 68.7266 441.992 68.7266C441.794 68.7266 441.638 68.6667 441.523 68.5469C441.409 68.4271 441.352 68.2786 441.352 68.1016ZM448.125 78.3672C448.776 78.3672 449.32 78.1849 449.758 77.8203C450.201 77.4505 450.44 76.974 450.477 76.3906H451.375C451.349 76.9062 451.188 77.3776 450.891 77.8047C450.594 78.2266 450.198 78.5573 449.703 78.7969C449.214 79.0365 448.688 79.1562 448.125 79.1562C447.016 79.1562 446.135 78.7708 445.484 78C444.839 77.2292 444.516 76.1927 444.516 74.8906V74.6094C444.516 73.776 444.661 73.0391 444.953 72.3984C445.245 71.7578 445.661 71.263 446.203 70.9141C446.75 70.5651 447.388 70.3906 448.117 70.3906C449.044 70.3906 449.807 70.6667 450.406 71.2188C451.01 71.7708 451.333 72.4974 451.375 73.3984H450.477C450.435 72.737 450.195 72.2031 449.758 71.7969C449.326 71.3906 448.779 71.1875 448.117 71.1875C447.273 71.1875 446.617 71.4922 446.148 72.1016C445.685 72.7109 445.453 73.5651 445.453 74.6641V74.9375C445.453 76.0156 445.685 76.8568 446.148 77.4609C446.617 78.0651 447.276 78.3672 448.125 78.3672ZM458.312 76.8516C458.312 76.388 458.125 76.0156 457.75 75.7344C457.38 75.4531 456.82 75.2344 456.07 75.0781C455.32 74.9167 454.737 74.7344 454.32 74.5312C453.909 74.3229 453.602 74.0703 453.398 73.7734C453.201 73.4766 453.102 73.1172 453.102 72.6953C453.102 72.0286 453.38 71.4792 453.938 71.0469C454.495 70.6094 455.208 70.3906 456.078 70.3906C457.021 70.3906 457.776 70.625 458.344 71.0938C458.917 71.5573 459.203 72.1641 459.203 72.9141H458.266C458.266 72.4193 458.057 72.0078 457.641 71.6797C457.229 71.3516 456.708 71.1875 456.078 71.1875C455.464 71.1875 454.969 71.3255 454.594 71.6016C454.224 71.8724 454.039 72.2266 454.039 72.6641C454.039 73.0859 454.193 73.4141 454.5 73.6484C454.812 73.8776 455.378 74.0885 456.195 74.2812C457.018 74.474 457.633 74.6797 458.039 74.8984C458.451 75.1172 458.755 75.3802 458.953 75.6875C459.151 75.9948 459.25 76.3672 459.25 76.8047C459.25 77.5182 458.961 78.0885 458.383 78.5156C457.81 78.9427 457.06 79.1562 456.133 79.1562C455.148 79.1562 454.349 78.9193 453.734 78.4453C453.125 77.9661 452.82 77.362 452.82 76.6328H453.758C453.794 77.1797 454.023 77.6068 454.445 77.9141C454.872 78.2161 455.435 78.3672 456.133 78.3672C456.784 78.3672 457.31 78.224 457.711 77.9375C458.112 77.651 458.312 77.2891 458.312 76.8516Z" fill="#EDF4F5"/>
<path d="M229.438 47V35.625H232.617C233.549 35.625 234.385 35.8385 235.125 36.2656C235.865 36.6875 236.44 37.2943 236.852 38.0859C237.268 38.8776 237.477 39.7786 237.477 40.7891V41.8359C237.477 42.8516 237.271 43.7526 236.859 44.5391C236.448 45.3255 235.867 45.9323 235.117 46.3594C234.372 46.7865 233.516 47 232.547 47H229.438ZM230.398 36.4453V46.1875H232.555C233.753 46.1875 234.714 45.7917 235.438 45C236.161 44.2031 236.523 43.1276 236.523 41.7734V40.7734C236.523 39.4661 236.167 38.4193 235.453 37.6328C234.74 36.8464 233.799 36.4505 232.633 36.4453H230.398ZM239.188 42.6484C239.188 41.8359 239.344 41.1042 239.656 40.4531C239.974 39.8021 240.419 39.2969 240.992 38.9375C241.57 38.5729 242.224 38.3906 242.953 38.3906C244.078 38.3906 244.99 38.7865 245.688 39.5781C246.385 40.3646 246.734 41.4089 246.734 42.7109V42.9062C246.734 43.724 246.576 44.4609 246.258 45.1172C245.945 45.7682 245.503 46.2708 244.93 46.625C244.357 46.9792 243.703 47.1562 242.969 47.1562C241.849 47.1562 240.938 46.763 240.234 45.9766C239.536 45.1849 239.188 44.138 239.188 42.8359V42.6484ZM240.125 42.9062C240.125 43.9167 240.385 44.7474 240.906 45.3984C241.432 46.0443 242.12 46.3672 242.969 46.3672C243.812 46.3672 244.495 46.0443 245.016 45.3984C245.542 44.7474 245.805 43.8906 245.805 42.8281V42.6484C245.805 42.0026 245.685 41.4115 245.445 40.875C245.206 40.3385 244.87 39.9245 244.438 39.6328C244.005 39.3359 243.51 39.1875 242.953 39.1875C242.12 39.1875 241.44 39.5156 240.914 40.1719C240.388 40.8229 240.125 41.6771 240.125 42.7344V42.9062ZM249.523 38.5469L249.555 39.9219C249.867 39.4115 250.258 39.0286 250.727 38.7734C251.195 38.5182 251.716 38.3906 252.289 38.3906C253.622 38.3906 254.469 38.9375 254.828 40.0312C255.13 39.5052 255.534 39.1016 256.039 38.8203C256.544 38.5339 257.102 38.3906 257.711 38.3906C259.523 38.3906 260.448 39.3802 260.484 41.3594V47H259.547V41.4297C259.542 40.6745 259.378 40.1146 259.055 39.75C258.737 39.3854 258.216 39.2031 257.492 39.2031C256.82 39.2135 256.253 39.4323 255.789 39.8594C255.326 40.2812 255.068 40.7969 255.016 41.4062V47H254.078V41.3594C254.073 40.6354 253.901 40.0964 253.562 39.7422C253.229 39.3828 252.714 39.2031 252.016 39.2031C251.427 39.2031 250.922 39.3724 250.5 39.7109C250.078 40.0443 249.766 40.5417 249.562 41.2031V47H248.625V38.5469H249.523ZM268.195 47C268.102 46.7344 268.042 46.3411 268.016 45.8203C267.688 46.2474 267.268 46.5781 266.758 46.8125C266.253 47.0417 265.716 47.1562 265.148 47.1562C264.336 47.1562 263.677 46.9297 263.172 46.4766C262.672 46.0234 262.422 45.4505 262.422 44.7578C262.422 43.9349 262.763 43.2839 263.445 42.8047C264.133 42.3255 265.089 42.0859 266.312 42.0859H268.008V41.125C268.008 40.5208 267.82 40.0469 267.445 39.7031C267.076 39.3542 266.534 39.1797 265.82 39.1797C265.169 39.1797 264.63 39.3464 264.203 39.6797C263.776 40.013 263.562 40.4141 263.562 40.8828L262.625 40.875C262.625 40.2031 262.938 39.6224 263.562 39.1328C264.188 38.638 264.956 38.3906 265.867 38.3906C266.81 38.3906 267.552 38.6276 268.094 39.1016C268.641 39.5703 268.922 40.2266 268.938 41.0703V45.0703C268.938 45.888 269.023 46.5 269.195 46.9062V47H268.195ZM265.258 46.3281C265.883 46.3281 266.44 46.1771 266.93 45.875C267.424 45.5729 267.784 45.1693 268.008 44.6641V42.8047H266.336C265.404 42.8151 264.674 42.987 264.148 43.3203C263.622 43.6484 263.359 44.1016 263.359 44.6797C263.359 45.1536 263.534 45.5469 263.883 45.8594C264.237 46.1719 264.695 46.3281 265.258 46.3281ZM272.484 47H271.547V38.5469H272.484V47ZM271.383 36.1016C271.383 35.9245 271.44 35.776 271.555 35.6562C271.669 35.5312 271.826 35.4688 272.023 35.4688C272.221 35.4688 272.378 35.5312 272.492 35.6562C272.612 35.776 272.672 35.9245 272.672 36.1016C272.672 36.2786 272.612 36.4271 272.492 36.5469C272.378 36.6667 272.221 36.7266 272.023 36.7266C271.826 36.7266 271.669 36.6667 271.555 36.5469C271.44 36.4271 271.383 36.2786 271.383 36.1016ZM275.922 38.5469L275.953 39.9922C276.271 39.4714 276.667 39.0755 277.141 38.8047C277.615 38.5286 278.138 38.3906 278.711 38.3906C279.617 38.3906 280.292 38.6458 280.734 39.1562C281.177 39.6667 281.401 40.4323 281.406 41.4531V47H280.477V41.4453C280.471 40.6901 280.31 40.1276 279.992 39.7578C279.68 39.388 279.177 39.2031 278.484 39.2031C277.906 39.2031 277.393 39.3854 276.945 39.75C276.503 40.1094 276.174 40.5964 275.961 41.2109V47H275.031V38.5469H275.922Z" fill="#EDF4F5"/>
<path d="M255.398 162.367V167H254.438V155.625H258.312C259.495 155.625 260.427 155.927 261.109 156.531C261.797 157.135 262.141 157.966 262.141 159.023C262.141 160.091 261.81 160.917 261.148 161.5C260.492 162.078 259.539 162.367 258.289 162.367H255.398ZM255.398 161.555H258.312C259.245 161.555 259.956 161.333 260.445 160.891C260.935 160.448 261.18 159.831 261.18 159.039C261.18 158.253 260.935 157.628 260.445 157.164C259.961 156.695 259.271 156.456 258.375 156.445H255.398V161.555ZM267.984 159.344C267.786 159.307 267.576 159.289 267.352 159.289C266.768 159.289 266.273 159.453 265.867 159.781C265.466 160.104 265.18 160.576 265.008 161.195V167H264.078V158.547H264.992L265.008 159.891C265.503 158.891 266.297 158.391 267.391 158.391C267.651 158.391 267.857 158.424 268.008 158.492L267.984 159.344ZM268.797 162.648C268.797 161.836 268.953 161.104 269.266 160.453C269.583 159.802 270.029 159.297 270.602 158.938C271.18 158.573 271.833 158.391 272.562 158.391C273.688 158.391 274.599 158.786 275.297 159.578C275.995 160.365 276.344 161.409 276.344 162.711V162.906C276.344 163.724 276.185 164.461 275.867 165.117C275.555 165.768 275.112 166.271 274.539 166.625C273.966 166.979 273.312 167.156 272.578 167.156C271.458 167.156 270.547 166.763 269.844 165.977C269.146 165.185 268.797 164.138 268.797 162.836V162.648ZM269.734 162.906C269.734 163.917 269.995 164.747 270.516 165.398C271.042 166.044 271.729 166.367 272.578 166.367C273.422 166.367 274.104 166.044 274.625 165.398C275.151 164.747 275.414 163.891 275.414 162.828V162.648C275.414 162.003 275.294 161.411 275.055 160.875C274.815 160.339 274.479 159.924 274.047 159.633C273.615 159.336 273.12 159.188 272.562 159.188C271.729 159.188 271.049 159.516 270.523 160.172C269.997 160.823 269.734 161.677 269.734 162.734V162.906ZM279.289 158.547V168.008C279.289 168.789 279.102 169.385 278.727 169.797C278.352 170.208 277.799 170.414 277.07 170.414C276.789 170.414 276.516 170.365 276.25 170.266L276.266 169.492C276.495 169.56 276.729 169.594 276.969 169.594C277.896 169.594 278.359 169.06 278.359 167.992V158.547H279.289ZM278.828 155.469C279.031 155.469 279.19 155.531 279.305 155.656C279.419 155.776 279.477 155.924 279.477 156.102C279.477 156.279 279.419 156.427 279.305 156.547C279.19 156.667 279.031 156.727 278.828 156.727C278.63 156.727 278.474 156.667 278.359 156.547C278.25 156.427 278.195 156.279 278.195 156.102C278.195 155.924 278.25 155.776 278.359 155.656C278.474 155.531 278.63 155.469 278.828 155.469ZM285.211 167.156C284.492 167.156 283.841 166.979 283.258 166.625C282.68 166.271 282.229 165.779 281.906 165.148C281.583 164.513 281.422 163.802 281.422 163.016V162.68C281.422 161.867 281.578 161.135 281.891 160.484C282.208 159.833 282.648 159.323 283.211 158.953C283.773 158.578 284.383 158.391 285.039 158.391C286.065 158.391 286.878 158.742 287.477 159.445C288.081 160.143 288.383 161.099 288.383 162.312V162.836H282.352V163.016C282.352 163.974 282.625 164.773 283.172 165.414C283.724 166.049 284.417 166.367 285.25 166.367C285.75 166.367 286.19 166.276 286.57 166.094C286.956 165.911 287.305 165.62 287.617 165.219L288.203 165.664C287.516 166.659 286.518 167.156 285.211 167.156ZM285.039 159.188C284.336 159.188 283.742 159.445 283.258 159.961C282.779 160.477 282.487 161.169 282.383 162.039H287.453V161.938C287.427 161.125 287.195 160.464 286.758 159.953C286.32 159.443 285.747 159.188 285.039 159.188ZM293.328 166.367C293.979 166.367 294.523 166.185 294.961 165.82C295.404 165.451 295.643 164.974 295.68 164.391H296.578C296.552 164.906 296.391 165.378 296.094 165.805C295.797 166.227 295.401 166.557 294.906 166.797C294.417 167.036 293.891 167.156 293.328 167.156C292.219 167.156 291.339 166.771 290.688 166C290.042 165.229 289.719 164.193 289.719 162.891V162.609C289.719 161.776 289.865 161.039 290.156 160.398C290.448 159.758 290.865 159.263 291.406 158.914C291.953 158.565 292.591 158.391 293.32 158.391C294.247 158.391 295.01 158.667 295.609 159.219C296.214 159.771 296.536 160.497 296.578 161.398H295.68C295.638 160.737 295.398 160.203 294.961 159.797C294.529 159.391 293.982 159.188 293.32 159.188C292.477 159.188 291.82 159.492 291.352 160.102C290.888 160.711 290.656 161.565 290.656 162.664V162.938C290.656 164.016 290.888 164.857 291.352 165.461C291.82 166.065 292.479 166.367 293.328 166.367ZM299.906 156.383V158.547H301.656V159.312H299.906V164.945C299.906 165.414 299.99 165.763 300.156 165.992C300.328 166.221 300.612 166.336 301.008 166.336C301.164 166.336 301.417 166.31 301.766 166.258L301.805 167.023C301.56 167.112 301.227 167.156 300.805 167.156C300.164 167.156 299.698 166.971 299.406 166.602C299.115 166.227 298.969 165.677 298.969 164.953V159.312H297.414V158.547H298.969V156.383H299.906Z" fill="#EDF4F5"/>
<path d="M358.492 163.453C358.362 164.651 357.932 165.568 357.203 166.203C356.479 166.839 355.513 167.156 354.305 167.156C353.461 167.156 352.714 166.945 352.062 166.523C351.417 166.102 350.917 165.505 350.562 164.734C350.208 163.958 350.029 163.073 350.023 162.078V160.602C350.023 159.591 350.201 158.695 350.555 157.914C350.909 157.133 351.417 156.531 352.078 156.109C352.745 155.682 353.51 155.469 354.375 155.469C355.594 155.469 356.555 155.799 357.258 156.461C357.966 157.117 358.378 158.026 358.492 159.188H357.523C357.284 157.255 356.234 156.289 354.375 156.289C353.344 156.289 352.521 156.674 351.906 157.445C351.297 158.216 350.992 159.281 350.992 160.641V162.031C350.992 163.344 351.289 164.391 351.883 165.172C352.482 165.953 353.289 166.344 354.305 166.344C355.31 166.344 356.068 166.104 356.578 165.625C357.089 165.141 357.404 164.417 357.523 163.453H358.492ZM360.094 162.648C360.094 161.836 360.25 161.104 360.562 160.453C360.88 159.802 361.326 159.297 361.898 158.938C362.477 158.573 363.13 158.391 363.859 158.391C364.984 158.391 365.896 158.786 366.594 159.578C367.292 160.365 367.641 161.409 367.641 162.711V162.906C367.641 163.724 367.482 164.461 367.164 165.117C366.852 165.768 366.409 166.271 365.836 166.625C365.263 166.979 364.609 167.156 363.875 167.156C362.755 167.156 361.844 166.763 361.141 165.977C360.443 165.185 360.094 164.138 360.094 162.836V162.648ZM361.031 162.906C361.031 163.917 361.292 164.747 361.812 165.398C362.339 166.044 363.026 166.367 363.875 166.367C364.719 166.367 365.401 166.044 365.922 165.398C366.448 164.747 366.711 163.891 366.711 162.828V162.648C366.711 162.003 366.591 161.411 366.352 160.875C366.112 160.339 365.776 159.924 365.344 159.633C364.911 159.336 364.417 159.188 363.859 159.188C363.026 159.188 362.346 159.516 361.82 160.172C361.294 160.823 361.031 161.677 361.031 162.734V162.906ZM370.469 158.547L370.5 159.992C370.818 159.471 371.214 159.076 371.688 158.805C372.161 158.529 372.685 158.391 373.258 158.391C374.164 158.391 374.839 158.646 375.281 159.156C375.724 159.667 375.948 160.432 375.953 161.453V167H375.023V161.445C375.018 160.69 374.857 160.128 374.539 159.758C374.227 159.388 373.724 159.203 373.031 159.203C372.453 159.203 371.94 159.385 371.492 159.75C371.049 160.109 370.721 160.596 370.508 161.211V167H369.578V158.547H370.469ZM379.828 156.383V158.547H381.578V159.312H379.828V164.945C379.828 165.414 379.911 165.763 380.078 165.992C380.25 166.221 380.534 166.336 380.93 166.336C381.086 166.336 381.339 166.31 381.688 166.258L381.727 167.023C381.482 167.112 381.148 167.156 380.727 167.156C380.086 167.156 379.62 166.971 379.328 166.602C379.036 166.227 378.891 165.677 378.891 164.953V159.312H377.336V158.547H378.891V156.383H379.828ZM386.789 167.156C386.07 167.156 385.419 166.979 384.836 166.625C384.258 166.271 383.807 165.779 383.484 165.148C383.161 164.513 383 163.802 383 163.016V162.68C383 161.867 383.156 161.135 383.469 160.484C383.786 159.833 384.227 159.323 384.789 158.953C385.352 158.578 385.961 158.391 386.617 158.391C387.643 158.391 388.456 158.742 389.055 159.445C389.659 160.143 389.961 161.099 389.961 162.312V162.836H383.93V163.016C383.93 163.974 384.203 164.773 384.75 165.414C385.302 166.049 385.995 166.367 386.828 166.367C387.328 166.367 387.768 166.276 388.148 166.094C388.534 165.911 388.883 165.62 389.195 165.219L389.781 165.664C389.094 166.659 388.096 167.156 386.789 167.156ZM386.617 159.188C385.914 159.188 385.32 159.445 384.836 159.961C384.357 160.477 384.065 161.169 383.961 162.039H389.031V161.938C389.005 161.125 388.773 160.464 388.336 159.953C387.898 159.443 387.326 159.188 386.617 159.188ZM392.672 158.547L392.703 159.992C393.021 159.471 393.417 159.076 393.891 158.805C394.365 158.529 394.888 158.391 395.461 158.391C396.367 158.391 397.042 158.646 397.484 159.156C397.927 159.667 398.151 160.432 398.156 161.453V167H397.227V161.445C397.221 160.69 397.06 160.128 396.742 159.758C396.43 159.388 395.927 159.203 395.234 159.203C394.656 159.203 394.143 159.385 393.695 159.75C393.253 160.109 392.924 160.596 392.711 161.211V167H391.781V158.547H392.672ZM402.031 156.383V158.547H403.781V159.312H402.031V164.945C402.031 165.414 402.115 165.763 402.281 165.992C402.453 166.221 402.737 166.336 403.133 166.336C403.289 166.336 403.542 166.31 403.891 166.258L403.93 167.023C403.685 167.112 403.352 167.156 402.93 167.156C402.289 167.156 401.823 166.971 401.531 166.602C401.24 166.227 401.094 165.677 401.094 164.953V159.312H399.539V158.547H401.094V156.383H402.031Z" fill="#EDF4F5"/>
<path d="M313.099 241.946V246H312.258V236.047H315.648C316.683 236.047 317.499 236.311 318.096 236.84C318.697 237.368 318.998 238.095 318.998 239.021C318.998 239.955 318.709 240.677 318.13 241.188C317.556 241.693 316.722 241.946 315.628 241.946H313.099ZM313.099 241.235H315.648C316.464 241.235 317.086 241.042 317.515 240.654C317.943 240.267 318.157 239.727 318.157 239.034C318.157 238.346 317.943 237.799 317.515 237.394C317.091 236.983 316.487 236.774 315.703 236.765H313.099V241.235ZM323.411 239.301C323.238 239.269 323.054 239.253 322.858 239.253C322.347 239.253 321.914 239.396 321.559 239.684C321.208 239.966 320.957 240.379 320.807 240.921V246H319.993V238.604H320.793L320.807 239.779C321.24 238.904 321.935 238.467 322.892 238.467C323.12 238.467 323.3 238.496 323.432 238.556L323.411 239.301ZM323.422 242.192C323.422 241.481 323.559 240.841 323.832 240.271C324.11 239.702 324.5 239.26 325.001 238.945C325.507 238.626 326.079 238.467 326.717 238.467C327.702 238.467 328.499 238.813 329.11 239.506C329.72 240.194 330.026 241.108 330.026 242.247V242.418C330.026 243.133 329.887 243.778 329.609 244.353C329.335 244.922 328.948 245.362 328.447 245.672C327.945 245.982 327.373 246.137 326.731 246.137C325.751 246.137 324.954 245.793 324.338 245.104C323.728 244.412 323.422 243.496 323.422 242.356V242.192ZM324.243 242.418C324.243 243.302 324.47 244.029 324.926 244.599C325.386 245.164 325.988 245.446 326.731 245.446C327.469 245.446 328.066 245.164 328.522 244.599C328.982 244.029 329.212 243.279 329.212 242.35V242.192C329.212 241.627 329.107 241.11 328.898 240.641C328.688 240.171 328.394 239.809 328.016 239.554C327.638 239.294 327.205 239.164 326.717 239.164C325.988 239.164 325.393 239.451 324.933 240.025C324.473 240.595 324.243 241.342 324.243 242.268V242.418ZM330.693 242.233C330.693 241.076 330.948 240.16 331.459 239.485C331.974 238.806 332.671 238.467 333.55 238.467C334.558 238.467 335.323 238.868 335.847 239.67L335.888 238.604H336.654V245.85C336.654 246.802 336.387 247.556 335.854 248.112C335.321 248.668 334.599 248.946 333.687 248.946C333.172 248.946 332.68 248.83 332.211 248.598C331.746 248.37 331.379 248.064 331.11 247.682L331.568 247.189C332.147 247.9 332.835 248.256 333.632 248.256C334.316 248.256 334.849 248.053 335.232 247.647C335.615 247.246 335.813 246.688 335.827 245.973V245.043C335.303 245.772 334.539 246.137 333.537 246.137C332.68 246.137 331.992 245.795 331.472 245.111C330.953 244.428 330.693 243.505 330.693 242.343V242.233ZM331.52 242.377C331.52 243.32 331.709 244.065 332.087 244.612C332.466 245.155 332.999 245.426 333.687 245.426C334.694 245.426 335.407 244.975 335.827 244.072V240.634C335.635 240.16 335.36 239.8 335 239.554C334.64 239.303 334.207 239.178 333.701 239.178C333.013 239.178 332.477 239.449 332.094 239.991C331.712 240.529 331.52 241.324 331.52 242.377ZM341.505 239.301C341.332 239.269 341.147 239.253 340.951 239.253C340.441 239.253 340.008 239.396 339.652 239.684C339.301 239.966 339.051 240.379 338.9 240.921V246H338.087V238.604H338.887L338.9 239.779C339.333 238.904 340.028 238.467 340.985 238.467C341.213 238.467 341.393 238.496 341.525 238.556L341.505 239.301ZM346.499 246C346.417 245.768 346.365 245.424 346.342 244.968C346.055 245.341 345.688 245.631 345.241 245.836C344.799 246.036 344.33 246.137 343.833 246.137C343.122 246.137 342.546 245.938 342.104 245.542C341.666 245.146 341.447 244.644 341.447 244.038C341.447 243.318 341.746 242.748 342.343 242.329C342.944 241.91 343.781 241.7 344.852 241.7H346.335V240.859C346.335 240.331 346.171 239.916 345.843 239.615C345.519 239.31 345.045 239.157 344.421 239.157C343.851 239.157 343.38 239.303 343.006 239.595C342.632 239.886 342.445 240.237 342.445 240.647L341.625 240.641C341.625 240.053 341.898 239.545 342.445 239.116C342.992 238.683 343.664 238.467 344.462 238.467C345.287 238.467 345.936 238.674 346.41 239.089C346.889 239.499 347.135 240.073 347.148 240.812V244.312C347.148 245.027 347.224 245.562 347.374 245.918V246H346.499ZM343.929 245.412C344.476 245.412 344.963 245.28 345.392 245.016C345.825 244.751 346.139 244.398 346.335 243.956V242.329H344.872C344.056 242.338 343.418 242.489 342.958 242.78C342.498 243.067 342.268 243.464 342.268 243.97C342.268 244.384 342.42 244.729 342.726 245.002C343.035 245.275 343.437 245.412 343.929 245.412ZM349.381 238.604L349.408 239.807C349.682 239.36 350.024 239.025 350.434 238.802C350.844 238.578 351.3 238.467 351.801 238.467C352.968 238.467 353.708 238.945 354.023 239.902C354.287 239.442 354.64 239.089 355.082 238.843C355.524 238.592 356.012 238.467 356.545 238.467C358.131 238.467 358.94 239.333 358.972 241.064V246H358.152V241.126C358.147 240.465 358.003 239.975 357.721 239.656C357.443 239.337 356.987 239.178 356.354 239.178C355.766 239.187 355.269 239.378 354.863 239.752C354.458 240.121 354.232 240.572 354.187 241.105V246H353.366V241.064C353.362 240.431 353.211 239.959 352.915 239.649C352.624 239.335 352.172 239.178 351.562 239.178C351.047 239.178 350.605 239.326 350.236 239.622C349.866 239.914 349.593 240.349 349.415 240.928V246H348.595V238.604H349.381ZM361.095 238.604L361.122 239.807C361.396 239.36 361.738 239.025 362.148 238.802C362.558 238.578 363.014 238.467 363.515 238.467C364.682 238.467 365.422 238.945 365.737 239.902C366.001 239.442 366.354 239.089 366.796 238.843C367.238 238.592 367.726 238.467 368.259 238.467C369.845 238.467 370.654 239.333 370.686 241.064V246H369.866V241.126C369.861 240.465 369.718 239.975 369.435 239.656C369.157 239.337 368.701 239.178 368.068 239.178C367.48 239.187 366.983 239.378 366.578 239.752C366.172 240.121 365.946 240.572 365.901 241.105V246H365.08V241.064C365.076 240.431 364.926 239.959 364.629 239.649C364.338 239.335 363.886 239.178 363.276 239.178C362.761 239.178 362.319 239.326 361.95 239.622C361.58 239.914 361.307 240.349 361.129 240.928V246H360.309V238.604H361.095ZM372.98 246H372.16V238.604H372.98V246ZM372.016 236.464C372.016 236.309 372.066 236.179 372.167 236.074C372.267 235.965 372.404 235.91 372.577 235.91C372.75 235.91 372.887 235.965 372.987 236.074C373.092 236.179 373.144 236.309 373.144 236.464C373.144 236.619 373.092 236.749 372.987 236.854C372.887 236.958 372.75 237.011 372.577 237.011C372.404 237.011 372.267 236.958 372.167 236.854C372.066 236.749 372.016 236.619 372.016 236.464ZM375.288 238.604L375.315 239.868C375.593 239.412 375.94 239.066 376.354 238.829C376.769 238.588 377.227 238.467 377.728 238.467C378.521 238.467 379.111 238.69 379.499 239.137C379.886 239.583 380.082 240.253 380.087 241.146V246H379.273V241.14C379.269 240.479 379.127 239.987 378.849 239.663C378.576 239.34 378.136 239.178 377.53 239.178C377.024 239.178 376.575 239.337 376.183 239.656C375.796 239.971 375.509 240.397 375.322 240.935V246H374.509V238.604H375.288ZM381.178 242.233C381.178 241.076 381.433 240.16 381.943 239.485C382.458 238.806 383.156 238.467 384.035 238.467C385.042 238.467 385.808 238.868 386.332 239.67L386.373 238.604H387.139V245.85C387.139 246.802 386.872 247.556 386.339 248.112C385.806 248.668 385.083 248.946 384.172 248.946C383.657 248.946 383.165 248.83 382.695 248.598C382.23 248.37 381.864 248.064 381.595 247.682L382.053 247.189C382.632 247.9 383.32 248.256 384.117 248.256C384.801 248.256 385.334 248.053 385.717 247.647C386.1 247.246 386.298 246.688 386.312 245.973V245.043C385.787 245.772 385.024 246.137 384.021 246.137C383.165 246.137 382.477 245.795 381.957 245.111C381.438 244.428 381.178 243.505 381.178 242.343V242.233ZM382.005 242.377C382.005 243.32 382.194 244.065 382.572 244.612C382.951 245.155 383.484 245.426 384.172 245.426C385.179 245.426 385.892 244.975 386.312 244.072V240.634C386.12 240.16 385.844 239.8 385.484 239.554C385.124 239.303 384.691 239.178 384.186 239.178C383.497 239.178 382.962 239.449 382.579 239.991C382.196 240.529 382.005 241.324 382.005 242.377Z" fill="#EDF4F5"/>
</svg>
