<svg width="265" height="51" viewBox="0 0 265 51" fill="none" xmlns="http://www.w3.org/2000/svg">
<path d="M139.919 21.8733C139.379 22.5774 138.631 23.1106 137.674 23.4729C136.716 23.8352 135.63 24.0164 134.413 24.0164C133.162 24.0164 132.054 23.7327 131.091 23.1653C130.127 22.5979 129.382 21.7879 128.855 20.7351C128.336 19.6756 128.066 18.4417 128.045 17.0335V15.8645C128.045 13.6087 128.585 11.8484 129.665 10.5838C130.745 9.31229 132.253 8.67654 134.187 8.67654C135.848 8.67654 137.168 9.0867 138.145 9.90701C139.123 10.7273 139.711 11.9099 139.909 13.4549H137.366C137.079 11.657 136.036 10.7581 134.238 10.7581C133.076 10.7581 132.191 11.1785 131.583 12.0193C130.981 12.8533 130.67 14.0804 130.65 15.7005V16.8489C130.65 18.4622 130.988 19.7166 131.665 20.6121C132.348 21.5008 133.295 21.9451 134.505 21.9451C135.831 21.9451 136.775 21.6443 137.335 21.0428V18.1204H134.259V16.1516H139.919V21.8733ZM139.263 28.9734H134.608V41.8113H132.034V28.9734H127.42V26.8816H139.263V28.9734Z" fill="#3C9EAA"/>
<path d="M147.206 18.0589H144.314V23.8113H141.72V8.88162H146.97C148.692 8.88162 150.022 9.26785 150.958 10.0403C151.895 10.8128 152.363 11.9305 152.363 13.3933C152.363 14.3914 152.121 15.2288 151.635 15.9055C151.157 16.5755 150.487 17.0916 149.625 17.4539L152.979 23.678V23.8113H150.2L147.206 18.0589ZM144.314 15.9773H146.98C147.855 15.9773 148.539 15.7586 149.031 15.3211C149.523 14.8767 149.769 14.2718 149.769 13.5061C149.769 12.7063 149.54 12.0877 149.082 11.6502C148.631 11.2127 147.954 10.9871 147.052 10.9734H144.314V15.9773ZM162.5 17.1463H156.368V21.74H163.536V23.8113H153.774V8.88162H163.464V10.9734H156.368V15.0955H162.5V17.1463ZM172.955 20.3352H167.172L165.962 23.8113H163.265L168.905 8.88162H171.233L176.882 23.8113H174.175L172.955 20.3352ZM167.9 18.2434H172.227L170.064 12.0501L167.9 18.2434ZM187.091 10.9734H182.436V23.8113H179.862V10.9734H175.248V8.88162H187.091V10.9734ZM148.908 35.1463H142.776V39.74H149.943V41.8113H140.182V26.8816H149.872V28.9734H142.776V33.0955H148.908V35.1463ZM162.398 36.951C162.247 38.5437 161.659 39.7879 160.634 40.6834C159.609 41.5721 158.245 42.0164 156.543 42.0164C155.353 42.0164 154.304 41.7361 153.395 41.1756C152.492 40.6082 151.795 39.805 151.303 38.7659C150.811 37.7268 150.554 36.5203 150.534 35.1463V33.7517C150.534 32.3435 150.783 31.1028 151.283 30.0296C151.782 28.9563 152.496 28.1292 153.426 27.5481C154.362 26.9671 155.442 26.6765 156.666 26.6765C158.313 26.6765 159.639 27.1243 160.644 28.0198C161.649 28.9153 162.234 30.18 162.398 31.8138H159.814C159.691 30.7405 159.376 29.968 158.87 29.4964C158.371 29.0179 157.637 28.7786 156.666 28.7786C155.538 28.7786 154.67 29.1922 154.061 30.0193C153.46 30.8396 153.152 32.0462 153.138 33.6389V34.9617C153.138 36.575 153.426 37.8055 154 38.6531C154.581 39.5008 155.429 39.9246 156.543 39.9246C157.561 39.9246 158.327 39.6956 158.84 39.2376C159.352 38.7796 159.677 38.0174 159.814 36.951H162.398ZM175.529 41.8113H172.945V35.177H166.27V41.8113H163.675V26.8816H166.27V33.0955H172.945V26.8816H175.529V41.8113ZM189.398 41.8113H186.804L180.149 31.219V41.8113H177.555V26.8816H180.149L186.825 37.5149V26.8816H189.398V41.8113ZM203.329 34.7361C203.329 36.199 203.076 37.4842 202.57 38.5916C202.065 39.6922 201.34 40.5398 200.397 41.1346C199.46 41.7224 198.38 42.0164 197.156 42.0164C195.946 42.0164 194.866 41.7224 193.916 41.1346C192.973 40.5398 192.241 39.6956 191.722 38.6018C191.209 37.5081 190.949 36.2469 190.943 34.8181V33.9773C190.943 32.5213 191.199 31.2361 191.712 30.1219C192.231 29.0076 192.959 28.1565 193.896 27.5686C194.839 26.9739 195.919 26.6765 197.136 26.6765C198.353 26.6765 199.429 26.9705 200.366 27.5584C201.309 28.1394 202.037 28.9803 202.55 30.0808C203.063 31.1746 203.322 32.4495 203.329 33.9055V34.7361ZM200.735 33.9568C200.735 32.3025 200.421 31.0345 199.792 30.1526C199.17 29.2708 198.284 28.8299 197.136 28.8299C196.015 28.8299 195.136 29.2708 194.501 30.1526C193.872 31.0276 193.55 32.2683 193.537 33.8748V34.7361C193.537 36.3767 193.855 37.6448 194.49 38.5403C195.133 39.4358 196.022 39.8836 197.156 39.8836C198.305 39.8836 199.187 39.4461 199.802 38.5711C200.424 37.6961 200.735 36.4178 200.735 34.7361V33.9568ZM207.458 39.74H214.235V41.8113H204.863V26.8816H207.458V39.74ZM226.433 34.7361C226.433 36.199 226.18 37.4842 225.675 38.5916C225.169 39.6922 224.444 40.5398 223.501 41.1346C222.564 41.7224 221.484 42.0164 220.261 42.0164C219.051 42.0164 217.97 41.7224 217.02 41.1346C216.077 40.5398 215.345 39.6956 214.826 38.6018C214.313 37.5081 214.054 36.2469 214.047 34.8181V33.9773C214.047 32.5213 214.303 31.2361 214.816 30.1219C215.335 29.0076 216.063 28.1565 217 27.5686C217.943 26.9739 219.023 26.6765 220.24 26.6765C221.457 26.6765 222.533 26.9705 223.47 27.5584C224.413 28.1394 225.141 28.9803 225.654 30.0808C226.167 31.1746 226.427 32.4495 226.433 33.9055V34.7361ZM223.839 33.9568C223.839 32.3025 223.525 31.0345 222.896 30.1526C222.274 29.2708 221.388 28.8299 220.24 28.8299C219.119 28.8299 218.241 29.2708 217.605 30.1526C216.976 31.0276 216.655 32.2683 216.641 33.8748V34.7361C216.641 36.3767 216.959 37.6448 217.595 38.5403C218.237 39.4358 219.126 39.8836 220.261 39.8836C221.409 39.8836 222.291 39.4461 222.906 38.5711C223.528 37.6961 223.839 36.4178 223.839 34.7361V33.9568ZM239.411 39.8733C238.871 40.5774 238.122 41.1106 237.165 41.4729C236.208 41.8352 235.121 42.0164 233.904 42.0164C232.653 42.0164 231.546 41.7327 230.582 41.1653C229.618 40.5979 228.873 39.7879 228.347 38.7351C227.827 37.6756 227.557 36.4417 227.537 35.0335V33.8645C227.537 31.6087 228.077 29.8484 229.157 28.5838C230.237 27.3123 231.744 26.6765 233.679 26.6765C235.34 26.6765 236.659 27.0867 237.637 27.907C238.614 28.7273 239.202 29.9099 239.4 31.4549H236.858C236.57 29.657 235.528 28.7581 233.73 28.7581C232.568 28.7581 231.683 29.1785 231.074 30.0193C230.473 30.8533 230.162 32.0804 230.141 33.7005V34.8489C230.141 36.4622 230.48 37.7166 231.156 38.6121C231.84 39.5008 232.787 39.9451 233.997 39.9451C235.323 39.9451 236.266 39.6443 236.827 39.0428V36.1204H233.751V34.1516H239.411V39.8733ZM246.082 33.9568L249.517 26.8816H252.388L247.384 36.3152V41.8113H244.78V36.3152L239.766 26.8816H242.647L246.082 33.9568Z" fill="white"/>
<path d="M21.687 28.4429H8.81104V42H3.25195V10.0078H23.5767V14.4902H8.81104V24.0044H21.687V28.4429ZM39.4321 34.5513H27.0396L24.4468 42H18.668L30.7529 10.0078H35.7407L47.8477 42H42.0469L39.4321 34.5513ZM28.5996 30.0688H37.8721L33.2358 16.7974L28.5996 30.0688ZM65.9663 33.7603C65.9663 32.354 65.4683 31.27 64.4722 30.5083C63.4907 29.7466 61.7109 28.9775 59.1328 28.2012C56.5547 27.4248 54.5039 26.5605 52.9805 25.6084C50.0654 23.7773 48.6079 21.3896 48.6079 18.4453C48.6079 15.8672 49.6553 13.7432 51.75 12.0732C53.8594 10.4033 56.5913 9.56836 59.9458 9.56836C62.1724 9.56836 64.1572 9.97852 65.9004 10.7988C67.6436 11.6191 69.0132 12.791 70.0093 14.3145C71.0054 15.8232 71.5034 17.5005 71.5034 19.3462H65.9663C65.9663 17.6763 65.439 16.3726 64.3843 15.4351C63.3442 14.4829 61.8501 14.0068 59.9019 14.0068C58.0854 14.0068 56.6719 14.395 55.6611 15.1714C54.665 15.9478 54.167 17.0317 54.167 18.4233C54.167 19.5952 54.709 20.5767 55.793 21.3677C56.877 22.144 58.6641 22.9058 61.1543 23.6528C63.6445 24.3853 65.644 25.2275 67.1528 26.1797C68.6616 27.1172 69.7676 28.2012 70.4707 29.4316C71.1738 30.6475 71.5254 32.0757 71.5254 33.7163C71.5254 36.3823 70.5 38.5063 68.4492 40.0884C66.4131 41.6558 63.6445 42.4395 60.1436 42.4395C57.8291 42.4395 55.6978 42.0146 53.7495 41.165C51.8159 40.3008 50.3071 39.1143 49.2231 37.6055C48.1538 36.0967 47.6191 34.3389 47.6191 32.332H53.1782C53.1782 34.1484 53.7788 35.5547 54.98 36.5508C56.1812 37.5469 57.9023 38.0449 60.1436 38.0449C62.0771 38.0449 63.5273 37.6567 64.4941 36.8804C65.4756 36.0894 65.9663 35.0493 65.9663 33.7603ZM97.2686 14.4902H87.293V42H81.7778V14.4902H71.8901V10.0078H97.2686V14.4902ZM124.154 26.8389C124.154 29.9736 123.612 32.7275 122.528 35.1006C121.444 37.459 119.892 39.2754 117.87 40.5498C115.863 41.8096 113.549 42.4395 110.927 42.4395C108.334 42.4395 106.02 41.8096 103.983 40.5498C101.962 39.2754 100.395 37.4663 99.2812 35.1226C98.1826 32.7788 97.626 30.0762 97.6113 27.0146V25.2129C97.6113 22.0928 98.1606 19.3389 99.2593 16.9512C100.373 14.5635 101.933 12.7397 103.939 11.48C105.961 10.2056 108.275 9.56836 110.883 9.56836C113.49 9.56836 115.797 10.1982 117.804 11.458C119.826 12.7031 121.386 14.5049 122.484 16.8633C123.583 19.207 124.14 21.939 124.154 25.0591V26.8389ZM118.595 25.1689C118.595 21.624 117.921 18.9067 116.574 17.0171C115.241 15.1274 113.344 14.1826 110.883 14.1826C108.48 14.1826 106.598 15.1274 105.236 17.0171C103.888 18.8921 103.2 21.5508 103.17 24.9932V26.8389C103.17 30.3545 103.852 33.0718 105.214 34.9907C106.591 36.9097 108.495 37.8691 110.927 37.8691C113.388 37.8691 115.277 36.9316 116.596 35.0566C117.929 33.1816 118.595 30.4424 118.595 26.8389V25.1689Z" fill="white"/>
</svg>
